<svg xmlns="http://www.w3.org/2000/svg" xmlns:xlink="http://www.w3.org/1999/xlink" viewBox="0 0 683.72 647.27">
  <defs>
    <style>
      .cls-1,
      .cls-59 {
        fill: url(#GradientFill_17);
      }

      .cls-1,
      .cls-2 {
        clip-rule: evenodd;
      }

      .cls-2,
      .cls-65 {
        fill: url(#GradientFill_17-2);
      }

      .cls-3,
      .cls-4 {
        fill: #090917;
      }

      .cls-10,
      .cls-11,
      .cls-12,
      .cls-13,
      .cls-14,
      .cls-15,
      .cls-16,
      .cls-17,
      .cls-18,
      .cls-19,
      .cls-20,
      .cls-21,
      .cls-22,
      .cls-23,
      .cls-24,
      .cls-26,
      .cls-27,
      .cls-28,
      .cls-29,
      .cls-3,
      .cls-30,
      .cls-31,
      .cls-32,
      .cls-33,
      .cls-34,
      .cls-35,
      .cls-36,
      .cls-37,
      .cls-38,
      .cls-39,
      .cls-4,
      .cls-40,
      .cls-41,
      .cls-42,
      .cls-43,
      .cls-44,
      .cls-45,
      .cls-46,
      .cls-47,
      .cls-48,
      .cls-49,
      .cls-5,
      .cls-50,
      .cls-51,
      .cls-52,
      .cls-53,
      .cls-54,
      .cls-55,
      .cls-56,
      .cls-57,
      .cls-58,
      .cls-59,
      .cls-6,
      .cls-61,
      .cls-62,
      .cls-63,
      .cls-64,
      .cls-65,
      .cls-67,
      .cls-68,
      .cls-7,
      .cls-8,
      .cls-9 {
        fill-rule: evenodd;
      }

      .cls-3 {
        opacity: 0.25;
      }

      .cls-5 {
        fill: #d1c1c3;
      }

      .cls-6 {
        fill: #bdaeb1;
      }

      .cls-7 {
        fill: #e3d3d4;
      }

      .cls-8 {
        fill: #08254a;
      }

      .cls-9 {
        fill: #0d3b79;
      }

      .cls-10 {
        fill: #fff1db;
      }

      .cls-11 {
        fill: #eba372;
      }

      .cls-12 {
        fill: #fbd395;
      }

      .cls-13 {
        fill: #111136;
      }

      .cls-14 {
        fill: #fff;
      }

      .cls-15 {
        fill: #bbcbe2;
      }

      .cls-16 {
        fill: #202052;
      }

      .cls-17 {
        fill: #3b3b3f;
      }

      .cls-18 {
        fill: #8d8d8e;
      }

      .cls-19 {
        fill: #282828;
      }

      .cls-20 {
        fill: #ffff01;
      }

      .cls-21 {
        fill: #e3b500;
      }

      .cls-22 {
        fill: #381e0b;
      }

      .cls-23 {
        fill: #070707;
        opacity: 0.34;
      }

      .cls-24 {
        fill: #5b3013;
      }

      .cls-25 {
        fill: #147243;
      }

      .cls-26 {
        fill: #22543d;
      }

      .cls-27 {
        fill: #266047;
      }

      .cls-28 {
        fill: #1f4c38;
      }

      .cls-29 {
        fill: #82b5a2;
      }

      .cls-30 {
        fill: #baf4db;
      }

      .cls-31 {
        fill: url(#GradientFill_2);
      }

      .cls-32 {
        fill: #2e825c;
      }

      .cls-33 {
        fill: #65a088;
      }

      .cls-34 {
        fill: url(#GradientFill_9);
      }

      .cls-35 {
        fill: url(#GradientFill_10);
      }

      .cls-36 {
        fill: #336632;
      }

      .cls-37 {
        fill: #91401f;
      }

      .cls-38 {
        fill: #439b45;
      }

      .cls-39 {
        fill: url(#GradientFill_9-2);
      }

      .cls-40 {
        fill: #faf6c5;
      }

      .cls-41 {
        fill: url(#GradientFill_11);
      }

      .cls-42 {
        fill: url(#GradientFill_12);
      }

      .cls-43 {
        fill: url(#GradientFill_13);
      }

      .cls-44 {
        fill: url(#GradientFill_14);
      }

      .cls-45 {
        fill: #464649;
        stroke: #111;
        stroke-miterlimit: 10;
      }

      .cls-46 {
        fill: url(#GradientFill_18);
      }

      .cls-47 {
        fill: url(#GradientFill_19);
      }

      .cls-48 {
        fill: #ee8b51;
      }

      .cls-49 {
        fill: #8d4d21;
      }

      .cls-50 {
        fill: url(#GradientFill_22);
      }

      .cls-51 {
        fill: url(#GradientFill_22-2);
      }

      .cls-52 {
        fill: url(#GradientFill_22-3);
      }

      .cls-53 {
        fill: #847c80;
      }

      .cls-54 {
        fill: url(#GradientFill_24);
      }

      .cls-55 {
        fill: #d36f3e;
      }

      .cls-56 {
        fill: url(#GradientFill_16);
      }

      .cls-57 {
        fill: url(#GradientFill_16-2);
      }

      .cls-58 {
        fill: url(#GradientFill_16-3);
      }

      .cls-60 {
        clip-path: url(#clip-path);
      }

      .cls-61 {
        fill: #000001;
      }

      .cls-62 {
        fill: #525254;
      }

      .cls-63 {
        fill: url(#GradientFill_16-4);
      }

      .cls-64 {
        fill: url(#GradientFill_16-5);
      }

      .cls-66 {
        clip-path: url(#clip-path-2);
      }

      .cls-67 {
        fill: url(#GradientFill_23);
      }

      .cls-68 {
        fill: #ca5828;
      }
    </style>
    <linearGradient id="GradientFill_17" x1="613.37" y1="453.61" x2="617.57" y2="441.85" gradientUnits="userSpaceOnUse">
      <stop offset="0" stop-color="#359cd7" />
      <stop offset="1" stop-color="#000001" />
    </linearGradient>
    <linearGradient id="GradientFill_17-2" x1="643.9" y1="457.18" x2="646.62" y2="443.51"
      xlink:href="#GradientFill_17" />
    <linearGradient id="GradientFill_2" x1="572.53" y1="572.66" x2="541.39" y2="654.28" gradientUnits="userSpaceOnUse">
      <stop offset="0" stop-color="#317439" />
      <stop offset="1" stop-color="#9dcb3b" />
    </linearGradient>
    <linearGradient id="GradientFill_9" x1="616.49" y1="494.22" x2="642.57" y2="494.52" gradientUnits="userSpaceOnUse">
      <stop offset="0" stop-color="#fbd191" />
      <stop offset="1" stop-color="#faf6c5" />
    </linearGradient>
    <linearGradient id="GradientFill_10" x1="620.04" y1="499.2" x2="618.92" y2="509.6" gradientUnits="userSpaceOnUse">
      <stop offset="0" stop-color="#e58550" />
      <stop offset="1" stop-color="#f8dea2" />
    </linearGradient>
    <linearGradient id="GradientFill_9-2" x1="608.32" y1="451.15" x2="686.56" y2="461.65"
      xlink:href="#GradientFill_9" />
    <linearGradient id="GradientFill_11" x1="594.98" y1="455.32" x2="571.02" y2="456.41" gradientUnits="userSpaceOnUse">
      <stop offset="0" stop-color="#e58550" />
      <stop offset="1" stop-color="#f5bf86" />
    </linearGradient>
    <linearGradient id="GradientFill_12" x1="581.27" y1="446.94" x2="587.95" y2="473.95" gradientUnits="userSpaceOnUse">
      <stop offset="0" stop-color="#faf6c5" />
      <stop offset="1" stop-color="#eb9b66" />
    </linearGradient>
    <linearGradient id="GradientFill_13" x1="629.54" y1="411.45" x2="636.08" y2="448.26" gradientUnits="userSpaceOnUse">
      <stop offset="0" stop-color="#f3bc80" />
      <stop offset="1" stop-color="#faf6c5" />
    </linearGradient>
    <linearGradient id="GradientFill_14" x1="614.26" y1="411.82" x2="639.85" y2="420" gradientUnits="userSpaceOnUse">
      <stop offset="0" stop-color="#e58550" />
      <stop offset="1" stop-color="#efb27a" />
    </linearGradient>
    <linearGradient id="GradientFill_18" x1="646.78" y1="452.31" x2="632.88" y2="453.64" gradientUnits="userSpaceOnUse">
      <stop offset="0" stop-color="#faf6c5" />
      <stop offset="1" stop-color="#aacf37" />
    </linearGradient>
    <linearGradient id="GradientFill_19" x1="641.93" y1="441.31" x2="598.82" y2="428.4" gradientUnits="userSpaceOnUse">
      <stop offset="0" stop-color="#faf6c5" />
      <stop offset="1" stop-color="#f5d299" />
    </linearGradient>
    <linearGradient id="GradientFill_22" x1="619.72" y1="479.18" x2="612.29" y2="474.37" gradientUnits="userSpaceOnUse">
      <stop offset="0" stop-color="#d9e0e8" />
      <stop offset="1" stop-color="#fff" />
    </linearGradient>
    <linearGradient id="GradientFill_22-2" x1="645.07" y1="479.51" x2="642.89" y2="478.48"
      xlink:href="#GradientFill_22" />
    <linearGradient id="GradientFill_22-3" x1="621.9" y1="476.15" x2="614.34" y2="473.07"
      xlink:href="#GradientFill_22" />
    <linearGradient id="GradientFill_24" x1="634.11" y1="497.59" x2="634.61" y2="492.06" gradientUnits="userSpaceOnUse">
      <stop offset="0" stop-color="#faf6c5" />
      <stop offset="1" stop-color="#f8dea4" />
    </linearGradient>
    <linearGradient id="GradientFill_16" x1="618.38" y1="468.65" x2="616.84" y2="443.88" gradientUnits="userSpaceOnUse">
      <stop offset="0" stop-color="#d3e1e9" />
      <stop offset="1" stop-color="#fff" />
    </linearGradient>
    <linearGradient id="GradientFill_16-2" x1="608.98" y1="456.43" x2="609.71" y2="439.45"
      xlink:href="#GradientFill_16" />
    <linearGradient id="GradientFill_16-3" x1="622.3" y1="455.86" x2="627.2" y2="437.37"
      xlink:href="#GradientFill_16" />
    <clipPath id="clip-path">
      <path class="cls-1"
        d="M613.46,454.86c2.72.63,5.75-1.88,6.78-5.6s-.34-7.24-3.06-7.87-5.75,1.88-6.78,5.6S610.74,454.24,613.46,454.86Z" />
    </clipPath>
    <linearGradient id="GradientFill_16-4" x1="649.08" y1="465.36" x2="648.07" y2="445.56"
      xlink:href="#GradientFill_16" />
    <linearGradient id="GradientFill_16-5" x1="650.45" y1="456.88" x2="655.7" y2="435.95"
      xlink:href="#GradientFill_16" />
    <clipPath id="clip-path-2">
      <path class="cls-2"
        d="M642.33,444.88a24,24,0,0,0-2.63,9.94,4.89,4.89,0,0,0,3.32,3.11c2.92.67,6-2,6.91-6C650.95,447.41,647.45,440.36,642.33,444.88Z" />
    </clipPath>
    <linearGradient id="GradientFill_23" x1="639.29" y1="464.51" x2="622.48" y2="464.79" gradientUnits="userSpaceOnUse">
      <stop offset="0" stop-color="#ee8b51" />
      <stop offset="1" stop-color="#f8da9f" />
    </linearGradient>
  </defs>
  <title>Asset 5</title>
  <g id="Layer_2" data-name="Layer 2">
    <g id="Layer_1-2" data-name="Layer 1">
      <polygon class="cls-3" points="286.81 467.01 663.63 625.59 635.95 635.43 303.11 507.77 286.81 467.01" />
      <polygon class="cls-3" points="142.86 467.25 608.75 631.08 589.55 647.23 102.73 492.96 142.86 467.25" />
      <path class="cls-4"
        d="M383.31,236.72q13.29,5.45,26.61,10.82c5.47,2.19,25.64,10.91,29.87,10.84,1.2.22,4.88,2.65,5.93,3.43l7,5.27,1.25-8.7c3.17-22-3.82-47.1-16.6-65.15-16.8-23.72-42-34.7-70.74-33.16-9.6-2.88-24.82-4.91-33.54.62-7.53,4.76-14.35,14.37-18,22.43l-.76,1.7.48,1.79c3.91,14.46,14.09,30.87,26.54,39.41,11.3,7.75,28.17,12,41.9,10.7Z" />
      <path class="cls-4"
        d="M383.69,234.06q13.58,5.57,27.2,11.05c3.89,1.56,25.87,10.71,29,10.66,1.52,0,6,2.92,7.36,3.94l3.52,2.63.63-4.35c3.08-21.36-3.76-45.79-16.15-63.27-16.37-23.12-40.9-33.67-68.93-32-8.86-2.73-23.78-4.91-31.83.19-7.07,4.48-13.6,13.74-17,21.3l-.38.85.24.9c3.74,13.92,13.61,29.79,25.5,37.94,10.87,7.45,27.48,11.66,40.81,10.19Z" />
      <path class="cls-4"
        d="M263.93,141c.15,5.1,3.15,12.63,5.23,17.37,4.41,10,37.57,40,49,37,5.34-1.38,17.24,0,23.15.21,6.91.2,15.4,0,21.69-3.08,4.13-2.05,15.21,13,22.49,6.15,5.54-5.19,7-14.73,6.73-22-1-22.74-15.12-41.41-33.58-53.57-20.65-13.6-43.52-16-66.11-5.56-9.52,4.39-20.39,11.94-27.3,19.85L263.87,139l.06,2Z" />
      <path class="cls-5"
        d="M319.9,185.25s6.41,24.1,24.46,36.47,39.7,9.67,39.7,9.67,52.9,21.82,55.83,21.78,9,4.46,9,4.46c5.28-36.65-19.52-96.3-82.82-92.31,0,0-20.37-6.41-30.12-.23s-16,20.16-16,20.16Z" />
      <path class="cls-6"
        d="M432.22,250.65c4.16,1.55,7,2.53,7.67,2.52,2.93,0,9,4.46,9,4.46,5-35-17.37-91-74.57-92.47l-6.36,3.29,4.47,16.67c-1-3.82,7.94,12.61,11.31,11.64,21-6.82,47.4,23.75,49.26,43.42l-.74,10.46Z" />
      <path class="cls-7"
        d="M446.67,256.14a3.69,3.69,0,0,0,2.17,1.49c4.84-33.64-15.66-86.63-68-92L375.76,170c41.71-1.08,75.37,44.29,70.92,86.09Z" />
      <path class="cls-4"
        d="M266.53,140.92c.14,4.55,3.24,12.36,5,16.4,3.88,8.81,36.14,38.08,45.94,35.55,9.25-2.39,32.21,3.34,44.34-2.68,6.28-3.12,15.94,11.18,21.86,6.58,5.5-4.27,7.15-14.15,6.9-20.1-.93-22-15.51-39.58-33.41-51.36-20-13.15-41.84-15.39-63.58-5.37-9,4.15-19.8,11.61-26.43,19.19l-.67.77,0,1Z" />
      <path class="cls-5"
        d="M269.14,140.84s39-44.7,86.61-13.36c44.48,29.28,33.31,74.83,16.58,83.13s-93.79-43.88-98.4-54.35-4.79-15.43-4.79-15.43Z" />
      <path class="cls-6"
        d="M286.79,126.58c15.86-9.63,40.92-17.56,69,.9,32.45,21.36,35.28,51.38,27.94,69.28,3.84-46.32-39.24-75-76.8-60.35l-21.79-.06,1.69-9.77Z" />
      <path class="cls-7"
        d="M286.79,126.58c15.86-9.63,40.92-17.56,69,.9A76,76,0,0,1,377,147.72c-21.68-25.84-62-40.26-89-14.82l-2-1.61.81-4.71Z" />
      <path class="cls-6"
        d="M319.9,185.25s6.41,24.1,24.46,36.47,39.7,9.67,39.7,9.67,12,4.94,24.83,10.11l8.36-7.51c-37.07-8.87-74.49-30.32-82.27-61.17l-6.44-1.11a63.6,63.6,0,0,0-8.64,13.54Z" />
      <path class="cls-7"
        d="M321.31,189.57c2.74,7.5,9.72,23,23,32.15a56.94,56.94,0,0,0,21.77,8.75l6.92-2.14s-17.81-5-29.32-13.38A47.51,47.51,0,0,1,328,194.85l-6.72-5.28Z" />
      <path class="cls-4"
        d="M240,241.18l-8.27-74.42,39.69-10,1.2,5.18c5.12,22.1,19,66,36,81.16,8.56,7.65,25.24,10.28,36.31,12,14.74,2.34,40,4.54,49.07,17.86a22.11,22.11,0,0,1,3.77,11.53,21.07,21.07,0,0,1-3.23,12.86C381,318.2,334.69,309.7,322,340.71a91.67,91.67,0,0,0-6.57,45.53c.68,5.73,2.08,12.89,4.48,18.14l1.51,3.3-2.57,2.56c-6.31,6.29-21.74,20.45-30.76,20.52s-30-4.1-38.38-7.78c-4.1-1.8-7.71-4.69-11.31-7.31a86.73,86.73,0,0,0-13.9-8.49c-10.54-5-39.11-21.24-43.82-31.48-7.37-16.06-8.87-28.66-7.77-46.18,1.46-23.18,48.83-71,67.15-88.34Z" />
      <path class="cls-4"
        d="M242.75,242.18l-8.17-73.45,34.91-8.78.6,2.59c5.25,22.71,19.33,66.93,36.76,82.51,9.07,8.11,26,10.81,37.64,12.67,13.7,2.17,38.89,4.4,47.33,16.76a19.5,19.5,0,0,1,3.31,10.19A18.48,18.48,0,0,1,392.33,296c-12.49,19.2-59.59,11.62-72.78,43.75a93.94,93.94,0,0,0-6.75,46.82c.68,5.76,2.24,13.56,4.7,18.92l.76,1.65L317,408.39c-5.66,5.65-21,19.7-28.94,19.76-8.26.06-29.77-4.24-37.31-7.55-3.81-1.67-7.46-4.59-10.83-7a88.27,88.27,0,0,0-14.32-8.74c-9.81-4.63-38.25-20.83-42.56-30.21-7.17-15.61-8.63-27.59-7.54-44.92,1.4-22.23,49.38-70.61,67.28-87.51Z" />
      <path class="cls-8"
        d="M267.56,163.12c5.49,23.74,19.77,68,37.56,83.87,22.88,20.45,85.87,7.76,87.42,37.8s-59.73,15.78-75.4,53.93-2,67.81-2,67.81-19.05,18.94-27.12,19-29.84-4.52-36.24-7.33-12.82-9.95-25.08-15.74-37.77-21.23-41.31-28.94-8.88-18.71-7.3-43.67,67.42-86.67,67.42-86.67l-8.06-72.49,30.13-7.58Z" />
      <path class="cls-4"
        d="M386.77,291.14c-.61-5.15-2.4-10.76-7.25-13.39-5.69-3.09-13.63-1.25-19.27,1.06a62.26,62.26,0,0,0-22.74,16.77,50.81,50.81,0,0,0-11.08,20.33L325,321.64l-5.5-2.14a105.06,105.06,0,0,1-18.92-10.31,164.54,164.54,0,0,1-38.35-35.41c-7.94-10.05-16-20.83-21.83-32.25l-.44-.85-1.91-17.16,4.62-1c14-3,28.08-5.73,41.75-9.82l4.33-1.3,1.9,4.11c4.23,9.16,10.37,20.82,17.94,27.59,8.56,7.65,25.24,10.28,36.31,12,14.74,2.34,40,4.55,49.07,17.86a22.1,22.1,0,0,1,3.77,11.53c.39,7.69-2.18,12.57-5.19,15.33l-4.27,3.92-1.5-12.64Z" />
      <path class="cls-4"
        d="M389.36,290.83c-.72-6.06-2.93-12.3-8.59-15.37-6.47-3.52-15.06-1.7-21.5.94a64.9,64.9,0,0,0-23.73,17.48,53.39,53.39,0,0,0-11.63,21.39l-.72,2.86-2.75-1.07c-6.12-2.38-13-6.48-18.43-10.06a162,162,0,0,1-37.73-34.85c-7.67-9.72-15.9-20.76-21.55-31.83l-.22-.42-1.59-14.34,2.31-.49c13.75-2.92,28.55-5.86,42-9.87l2.17-.65.95,2.05C292.65,226.05,299,238,306.86,245c9.07,8.11,26,10.81,37.64,12.66,13.7,2.18,38.89,4.4,47.33,16.76a19.49,19.49,0,0,1,3.31,10.19c.36,7-1.51,8-4.86,13.91l-.92-7.74Z" />
      <path class="cls-8"
        d="M285.92,217.7c5.63,12.19,12.13,23,19.2,29.29,22.88,20.45,85.87,7.76,87.42,37.8a17.7,17.7,0,0,1-.59,5.73c-4.75-40-61.45-12.19-70.57,24.11,0,0-29.22-11.36-55.06-44.1-11.64-14.75-17.91-24.8-21.28-31.4l-1.28-11.52c8-1.69,31.8-6.82,42.16-9.93Z" />
      <path class="cls-9"
        d="M374.28,271c-18.9-1.48-46.74,19.14-52.9,43.65,0,0-29.22-11.36-55.06-44.1q-3.15-4-5.78-7.52c9.07-3.78,39.56-14.62,39.56-14.62,18.29,15.78,50.71,20.72,74.19,22.58Z" />
      <path class="cls-4"
        d="M188.56,203l2.67-5.1,1.32,6.3.06.15a3,3,0,0,1,.19,1.06c1.44,6.74,3.51,13.8,5.25,20.47q5.18,19.8,10.45,39.58,8,30.11,16,60.21l27.11,26.81-.44,1.5c-1.17,4-.12,9.46,1.73,13,6.34,12.27,24.21,16.52,36.6,18.11,18,2.32,36.83,3.35,55,1.87,5.76-.47,13-1.23,18.62-2.8l7.35-2.06-4.56,6.13c-27.37,36.78-83.36,69.18-130.26,64.36l-.54-.06-.47-.27c-5.46-3.09-10.9-6.64-16.09-10.14a386.73,386.73,0,0,1-36.63-27.94c-30.58-26.37-59.71-60.23-72.55-99.09-10-30.39-15.51-63.44-12.14-95.45,1.11-10.49,3.77-25.41,8.35-35.13l.95-2,2.13.61q20.29,5.85,40.7,11.31c5.12,1.36,32.2,8.66,38.82,8.86a2.16,2.16,0,0,1,.38-.31Z" />
      <path class="cls-4"
        d="M248.7,353.22s-8.33,28.19,40.5,34.47,74.63-1,74.63-1C338,421.39,283.17,454.85,235.93,450c0,0-97.47-55.15-124.09-135.72s-3.91-128.65-3.91-128.65,84,24.38,82.24,19.63S222.2,327,222.2,327l26.5,26.21Z" />
      <path class="cls-9"
        d="M357.3,390.73c-4.19.69-8.56,1.12-12.37,1.43-18.51,1.52-37.67.47-56.06-1.89-14.41-1.85-33.29-6.79-40.57-20.89A25.39,25.39,0,0,1,245.83,354l-26-25.67-.18-.68q-8.15-30.44-16.22-60.9Q198.22,247,193,227.19c-1.59-6.09-3.45-12.5-4.86-18.71-.83,0-1.65-.14-2.33-.23-3.23-.42-6.52-1.11-9.7-1.8-9.41-2.05-18.8-4.5-28.1-7q-19.36-5.14-38.62-10.71c-3.77,9.15-6,22.28-7,31.43-3.29,31.26,2.1,63.6,11.9,93.27,12.53,37.91,41.18,71.06,71,96.78a381.28,381.28,0,0,0,36.14,27.56c4.93,3.32,10.09,6.7,15.27,9.66,42.53,4.09,93.1-23.93,120.57-56.73Z" />
      <path class="cls-8"
        d="M103.77,210.26c-.6,3.55-1,7-1.36,9.93-3.29,31.26,2.1,63.6,11.9,93.27,12.53,37.91,41.18,71.06,71,96.78a381.28,381.28,0,0,0,36.14,27.56c4.93,3.32,10.09,6.7,15.27,9.66,42.53,4.09,93.1-23.93,120.57-56.73C321,415.41,280.74,428.64,236.64,431c-73-41.9-129.35-121.8-118.86-207.23l-14-13.53Z" />
      <path class="cls-4"
        d="M13,305c3.82-2.82,4.79-5.35,7.65-9.3,2.81-6.46,9.56-13.13,15.53-15.94,10.75-5,35.81-14.25,47.31-11.46C97,271.61,129,295,141.16,304l1,.73.56,1.1c5.49,10.82,2.85,20.34-8.38,25.56l-1.09.51-1.2,0q-31.83-.56-63.65-1.32c-13.38-.34-26.75-.7-40.12-1.24-4.9-.2-9.8-.41-14.69-.71a70.93,70.93,0,0,1-8.68-.83l-3.19-.6-.87-3.13a22.5,22.5,0,0,1-.71-8.38,21.92,21.92,0,0,1,2.05-7.28c1.61-3.28,7.62-1,10.83-3.37Z" />
      <path class="cls-4"
        d="M264.08,312,262,331.58l-3,1.14c-27,10.24-54.23,10-78.91-6.17l-2.53-1.65,1.23-20.64,7.42,4.58c22.16,13.68,45.94,13.92,70.17,5.79l7.7-2.58Z" />
      <path class="cls-4"
        d="M103.47,244.58q0-4.32.1-8.65l0-2.76,22.56-14.92,76.36-28.6L319.89,214l.91.66c5.8,4.2,5.47,17.49,4.93,24-1.6,19.32-32.94,35.64-45.31,49-7.93,8.54-14.69,23.78-17.86,35l-.47,1.68-6.86,5.22-23.68,1.88-52.67-9.7-.27-3.81c-.6-8.43-1.3-17.39-4.22-25.38-3.48-9.54-9.76-16.23-18-21.92-14.1-9.73-32.82-16.08-49.17-20.94l-3.77-1.12,0-3.94Z" />
      <path class="cls-4"
        d="M106.08,244.61l.1-8.65,0-1.38,21.16-14,75.37-28.24,116.08,24.13.45.33c4.78,3.48,4.27,16.8,3.87,21.65-1.46,17.67-32.88,34.76-44.63,47.42-8.13,8.76-15.18,24.4-18.45,36l-.24.84L254.25,327l-22.58,1.79-50.35-9.27-.13-1.8c-.62-8.68-1.37-17.87-4.37-26.09-3.67-10.05-10.26-17.16-19-23.17-14.2-9.8-33.5-16.41-49.91-21.29l-1.89-.56,0-2Z" />
      <path class="cls-5"
        d="M108.68,244.64c68.9,20.5,72.83,41,75.11,72.86l48.31,14.44L253,324.64l4.54-3.45s6.69-23.77,19.05-37.09,42.59-29.59,43.94-45.86-2.8-19.32-2.8-19.32l-114.8-23.86-74.39,27.87L108.78,236q0,4.32-.1,8.65Z" />
      <path class="cls-6"
        d="M251.8,325.06l1.2-.42,4.54-3.45s6.69-23.77,19.05-37.09,42.59-29.59,43.94-45.86-2.8-19.32-2.8-19.32l-28.78-6c-11.42,2.07-19.56,3.77-19.56,3.77l27.29,15.69c-27.45,41.72-30.28,46.45-39.42,79.2-2.28,6.23-14,9.25-14,9.25l8.51,4.22Z" />
      <path class="cls-7"
        d="M277.44,283.22l.06-.06-.06.06Zm1.22-1.22c13.36-12.91,40.59-28.33,41.87-43.76.72-8.67-.12-13.58-1.07-16.29h0l-4.55.73s2.93,15.7-6.11,27.12c-7.77,9.81-25.35,27.43-30.15,32.2Z" />
      <path class="cls-4"
        d="M180.57,113.37l43.36,42.53-58.61,2L149,133.74l.27-2c1.68-12.41,5.52-24.51,8.44-36.67l.74-3.06,18.87-4.77,3.28,26.1Z" />
      <path class="cls-4"
        d="M178.09,114.59l39.66,38.91-51.09,1.73-15-22.13.13-1c1.62-11.95,5.55-24.61,8.39-36.41l.37-1.53,14.48-3.66,3,24.08Z" />
      <path class="cls-10"
        d="M172.85,93.76l-10.1,2.55c-2.23,9.28-7,26.62-8.34,36.15L168,152.58l43.57-1.48-36-35.28-2.77-22.06Z" />
      <path class="cls-11"
        d="M175,95.59l-10.1,2.55c-2.23,9.28-7,26.62-8.34,36.15l13.61,20.11,43.57-1.48-36-35.28L175,95.59Z" />
      <path class="cls-6"
        d="M108.68,244.64c68.9,20.5,72.83,41,75.11,72.86l28.88,8.64,12.2-3c-10-2.11-17.88-6.15-24.15-11.77,9.43-21.5-.85-58.11-18-73.55l-40-6.16L133,221.27l-4.41,1.65L108.78,236q0,4.32-.1,8.65Z" />
      <path class="cls-7"
        d="M116.06,246.92c61.06,19.52,65.44,39.44,67.65,69.48,1.26-.19,2-.19,1.8.12-.86,1.53,5.19-21.58-11.48-43.2S116.24,244,116.24,244l-.18,3Z" />
      <path class="cls-4"
        d="M70.86,282.91q-12.33,7.36-24.72,14.63c-5.09,3-23.74,14.59-27.93,15.14-1.15.4-4.43,3.34-5.35,4.27l-6.17,6.25-2.53-8.42c-6.39-21.3-3.19-47.15,6.78-66.89C24,222,47.35,207.37,76,204.64c9.07-4.27,23.82-8.52,33.27-4.35,8.15,3.6,16.32,12.09,21.09,19.52l1,1.57-.21,1.85c-1.73,14.87-9.36,32.62-20.42,42.91-10,9.33-26.08,16.06-39.86,16.78Z" />
      <path class="cls-4"
        d="M70.09,280.34q-12.61,7.52-25.26,15c-3.62,2.12-24,14.42-27.14,14.84-1.51.2-5.49,3.77-6.69,5l-3.09,3.13L6.65,314c-6.2-20.67-3.05-45.84,6.61-65C26,223.8,48.73,209.73,76.69,207.19c8.36-4,22.79-8.37,31.51-4.52,7.65,3.38,15.48,11.57,20,18.55l.5.78-.11.92c-1.64,14.32-9.06,31.48-19.6,41.3-9.65,9-25.45,15.6-38.85,16.12Z" />
      <path class="cls-4"
        d="M128.39,135.21l.14-.47c1-3.17,2.93-7.57,5.52-9.69,3-2.44,10.34-5.71,14.16-6.17l.87-.1.86.19c16.1,3.52,33.63,17.17,42,31.25l3,5-33.08,14.79-29-3.09-.87-.45c-4.58-2.36-9.06-4.94-13.69-7.21-3.42.7-9.54,3.34-12.56,4.59l-22.95,9.46L100,155.45c5.26-5.47,16.5-16.43,23.41-18.93a32.35,32.35,0,0,1,5-1.31Z" />
      <path class="cls-4"
        d="M130.41,137.51l.62-2c.81-2.61,2.55-6.7,4.68-8.43,2.57-2.09,9.54-5.21,12.82-5.6l.44-.05.43.09c15.36,3.36,32.3,16.56,40.31,30l1.49,2.52-29.77,13.31-27.78-3-.43-.22c-4.8-2.47-9.64-5.26-14.5-7.6-2.8.36-11.26,3.8-13.95,4.89L93.3,166.21l8.6-8.95c4.83-5,16.15-16,22.41-18.28a33.36,33.36,0,0,1,6.1-1.47Z" />
      <path class="cls-9"
        d="M133.52,136.28s1.71-5.45,3.84-7.18,8.72-4.7,11.48-5c11.7,2.56,29.42,13.32,38.62,28.82L161,164.72l-26.59-2.84s-13.65-7.2-15-7.87-15.58,5.05-15.58,5.05,14.64-15.19,21.42-17.64,28.47-3.63,38.17,2.34c-3.41-5-14.13-7.37-16-7.45s-13.89,0-13.89,0Z" />
      <path class="cls-8"
        d="M176.74,139.82a59.61,59.61,0,0,1,10.72,13.07L161,164.72l-26.59-2.84s-13.65-7.2-15-7.87-15.58,5.05-15.58,5.05a175.43,175.43,0,0,1,13.56-12.56s13-2.47,21.49-1.5,13.16,3.5,13.16,3.5,16-6.25,19.3-7a44.17,44.17,0,0,0,5.44-1.71Z" />
      <path class="cls-8"
        d="M133.52,136.28s1.71-5.45,3.84-7.18c12.82,1.89,17.05,3.37,23.54,12.2-4.52-3.33-12-4.91-13.49-5-1.83-.08-13.89,0-13.89,0Z" />
      <path class="cls-4"
        d="M174.76,170.58c.6,5.07-1.25,13-2.61,18-2.88,10.57-31.24,45.09-43,43.86-5.49-.58-17,2.58-22.87,3.63-6.8,1.22-15.22,2.33-21.91.17-4.39-1.42-13.13,15.07-21.33,9.41-6.25-4.31-9.14-13.52-9.9-20.74-2.42-22.63,8.82-43.19,25.29-57.95,18.41-16.5,40.68-22.23,64.56-15.28,10.07,2.93,21.93,8.79,29.93,15.59l1.56,1.32.24,2Z" />
      <path class="cls-4"
        d="M172.49,295.66q2.85-.17,5.68-.37a4.12,4.12,0,0,1,3.16,1c2.55,2.37,1,5.7.89,8.18.37,2.48-3.06,4.5-5.35,5.75,1,2.83,0,7.94-1.06,9.44-1.4,2-3.93,2.46-5.48,3.82a19,19,0,0,0-1,2,17.52,17.52,0,0,1-3.4,4.67c-4.28,4.28-28.4.24-34.59-.84l-.74-.13-10.38-9.37,16.19-13.72a121.51,121.51,0,0,1,6.66-10.2c1.89-2.37,14.23-8.34,17.2-8.15,3.2.2,8.21,4.08,10.56,6.32l1.62,1.54Z" />
      <path class="cls-5"
        d="M126,222.63s-2.78,24.78-18.79,39.69-37.83,15.44-37.83,15.44-49.08,29.41-52,29.8-8.2,5.74-8.2,5.74c-10.64-35.47,5.06-98.13,68.25-103.55,0,0,19.2-9.35,29.75-4.69S126,222.63,126,222.63Z" />
      <path class="cls-6"
        d="M24.56,303.93c-3.88,2.15-6.59,3.55-7.21,3.63-2.9.39-8.2,5.74-8.2,5.74C-1,279.42,12.86,220.72,69.21,210.81L76,213.13l-2,17.15c.45-3.93-6,13.64-9.46,13.19-21.76-3.64-43.36,30.5-42.29,50.23l2.28,10.23Z" />
      <path class="cls-7"
        d="M11.07,311.5a3.69,3.69,0,0,1-1.92,1.79c-9.77-32.55,2.67-88,53.63-101.09l5.69,3.65c-41.41,5.1-68,55-57.4,95.64Z" />
      <path class="cls-4"
        d="M184.84,304.42c.31,3.25-2.4,5.55-5.05,7.18.33,3.2-.32,7.49-1.85,9.62-1.82,2.55-3.77,2.61-5.58,4-.23.46-.42,1-.65,1.46a20.17,20.17,0,0,1-3.9,5.35c-5.41,5.41-29.49,1.17-36.88-.12l-1.48-.26L116.3,319.8l18.15-15.38a104.08,104.08,0,0,1,6.62-10.1c2.46-3.07,15.5-9.37,19.4-9.12s9.35,4.33,12.2,7l.79.76,4.52-.3a6.71,6.71,0,0,1,5.12,1.73c3.55,3.29,1.92,6.31,1.73,10Z" />
      <path class="cls-4"
        d="M172.18,170.89c.54,4.52-1.37,12.7-2.53,17-2.53,9.29-30.11,43-40.17,42-9.5-1-31.36,8.07-44.25,3.91-6.67-2.15-14.11,13.42-20.65,9.74-6.07-3.41-9.17-12.94-9.8-18.86-2.34-21.92,9.49-41.44,25.44-55.74,17.8-16,39.11-21.41,62.09-14.72,9.53,2.77,21.3,8.55,29,15.07l.78.66.12,1Z" />
      <path class="cls-5"
        d="M169.59,171.2s-45.2-38.43-87.64-.39c-39.65,35.54-21.87,78.94-4.09,84.67s86.27-57.27,89.27-68.31,2.46-16,2.46-16Z" />
      <path class="cls-6"
        d="M150,159.71C132.91,152.53,107,148.4,82,170.8c-28.93,25.93-27.28,56-17.38,72.65-10.65-45.24,27.72-80,67-71.05l21.54-3.28L150,159.71Z" />
      <path class="cls-7"
        d="M150,159.71C132.91,152.53,107,148.4,82,170.8A76,76,0,0,0,64,194c17.62-28.76,55.35-49,85.79-27.82l1.76-1.89-1.5-4.54Z" />
      <path class="cls-6"
        d="M126,222.63s-2.78,24.78-18.79,39.69-37.83,15.44-37.83,15.44-11.1,6.65-23.06,13.67l-9.38-6.19c35.35-14.26,69.18-41,72.31-72.67l6.2-2.05A63.6,63.6,0,0,1,126,222.63Z" />
      <path class="cls-7"
        d="M125.2,227.11c-1.6,7.83-6.21,24.21-18,35.21a56.94,56.94,0,0,1-20.24,11.87l-7.16-1.09s16.88-7.57,27-17.57a47.51,47.51,0,0,0,12.54-22.19l5.87-6.22Z" />
      <path class="cls-4"
        d="M209.76,229.85a318.3,318.3,0,0,0-37.65,11.82c-11.33,4.43-29.24,4.54-40.59.36A34.06,34.06,0,0,1,109,212l1.85-2.71c1.35-1.31-1.21-2.36-.41-4.06a20.51,20.51,0,0,1,5.8-7.91,1.11,1.11,0,0,0,.21-.2.88.88,0,0,0,0-.18c.29-1.83.4-2.84,1.77-4.32,3.21-3.45,7.37-3.81,10.05-6.67,3.39-3.6,1.26-15.33,6.68-20.07,6.24-8.32,18.11-13,27.41-16.8A488.4,488.4,0,0,1,211,132c21-6.17,54.34-19.45,74.94-7.56l.2.12.18.15c16.69,14.08,25.83,20.92,45.38,29.08,11.15,7.64,17.57,21.81,18.17,35.08.86,18.79-8.34,32.63-25.16,40.6-6.74,3.19-14.1,5.3-21.6,3.93-12.32-2.24-25.28-2.68-37.78-2.76-18.05-.11-37.66,1.17-55.53-.79Z" />
      <path class="cls-4"
        d="M284.6,126.7C298,138,322.25,153.28,332.26,154.54c10.87,8.53,14.46,23.4,15,34.45.81,17.69-7.76,30.59-23.67,38.12-5.38,2.55-12.54,5.08-20,3.73-29.89-5.43-68.85-.79-94-3.63a337.82,337.82,0,0,0-38.42,12c-12,4.69-29.37,3.79-38.74.34-11.15-4.11-21.79-13.37-23.31-26.92,3.27-3.17,3.64-9.27,8.74-13.3,2.05-1.62.51-3,2.31-5,3.14-3.38,6.88-3.3,10-6.66,4-4.3,2.12-16.45,6.69-20.06,6-8.21,18.94-13.07,26.49-16.19a487.4,487.4,0,0,1,48.31-17c19.72-5.8,53.28-19.13,72.9-7.81Z" />
      <path class="cls-5"
        d="M136.89,167.69c13.07-10.86,109.88-48.28,147.7-41,16.06,1,42,18.51,49.59,30.51s24.17,50.54-11.74,67.54-113.7,8-113.7,8-51.79,13.11-75.42,4.41-29.62-36.87-25.07-40.47,19.54-21.79,28.64-29Z" />
      <path class="cls-6"
        d="M208.74,232.72s-51.79,13.11-75.42,4.41-29.62-36.87-25.07-40.47a32.07,32.07,0,0,0,2.57-2.39s7.7,26.11,48.55,28.54c43,2.55,98.34-26,98.34-26s39.65,31.77,67.08,10.42-8.71-67-8.71-67h0c8,5.51,14.79,11.8,18.11,17,7.59,12,24.17,50.54-11.74,67.54-9,4.25-20.56,6.87-32.89,8.42-17,1.48-38.13-12.61-39.24-12.25" />
      <path class="cls-12"
        d="M124.22,319.93l7.61,6.87s28.92,5,32.3,1.57,3.24-5.7,4.46-6.77,4.32-2.32,5.11-3.42,1.44-7.47.58-7.16-3.85,1.23-5.18.39c0,0,10.74-5.26,10.55-6.51s1.93-7.24-1.3-7-25.18,1.42-25.18,1.42c5-2.6,10.6-2.2,15.9-3.31,0,0-5.92-5.42-8.93-5.61s-14.45,6.49-15,7.18-6.7,10.3-6.7,10.3l-14.23,12.05Z" />
      <path class="cls-11"
        d="M136.11,327.48c8.18,1.23,25.45,3.46,28,.89,3.38-3.38,3.24-5.7,4.46-6.77s4.32-2.32,5.11-3.42,1.44-7.47.58-7.16-3.85,1.23-5.18.39c0,0,10.74-5.26,10.55-6.51s1.93-7.24-1.3-7-24.49,1.39-25.17,1.42c.65,0,20.49-.08,20.72,1.78s-.12,4.1-1,5.19-10.77,7.52-10.77,7.52,6.93.87,6.95,1.67-3,5.35-3,5.35l-8.59,1.47s3.68,1,3.77,1.89-2.89,2.48-7.26,3.21-17.45.11-17.86.09ZM159,297.41c3.33-.61,6.77-.72,10.08-1.41,0,0-5.92-5.42-8.93-5.61,0,0,1.86,4,1.46,4.44s-2.55,2.51-2.62,2.57Z" />
      <path class="cls-4"
        d="M253.22,49.05l-22.45-6.62-.24-1c-.85-3.66-2.72-12.49-.43-15.59,2.16-2.91,4.45-6.76,8.12-7.86S253.22,49.05,253.22,49.05Z" />
      <path class="cls-4"
        d="M186.09,26.14a70,70,0,0,1,4.3,11.74l.65,2.19-2.09.93c-12.63,5.6-14.69,21.65-16.06,33.77-.39,3.43-3.52,4.92-4,6.63l-3.27,11.9L163.8,81.09c-.61-4.08-2.34-7.84-2.62-12.05-1-15.61,7.13-42.15,11.85-56A16.94,16.94,0,0,1,186.54,1.76c24.81-3.74,81.7-5.32,49.14,35.93l-1.13.75L233.28,38a196.51,196.51,0,0,0-47.2-11.81Z" />
      <path class="cls-13"
        d="M239,20.44c-2.81.84-5.11,4.67-6.77,6.91-1.48,2,.11,10,.77,13l17.6,5.19S242.7,19.33,239,20.44Z" />
      <path class="cls-4"
        d="M253.3,54.86c11.88,63.46,27.39,83.35-36.84,98.42-13.35,1.56-27.95.21-38.7-8.64a36.12,36.12,0,0,1-8.14-9.57C151,103.49,164.37,52,176.2,19.84l1.38-3.76,71.29,6.47.74,3.85c1.33,6.93,1.95,13.9,5.29,20.26L256.14,49l-2.84,5.86Z" />
      <path class="cls-4"
        d="M250.58,54.5c23.06,89.49,4.34,87.43-34.43,96.2-12.64,1.48-26.54.33-36.74-8.06a33.47,33.47,0,0,1-7.55-8.88c-18.2-30.82-4.64-81.92,6.79-113l.69-1.88L246.69,25l.37,1.93c1.41,7.34,2,14.22,5.55,21l.61,1.17-2.64,5.44Z" />
      <path class="cls-12"
        d="M244.5,27.4c1.49,7.74,2,14.45,5.8,21.7l-2.44,5c4.66,25.53,3.71,43.68,9.46,66.83a13.11,13.11,0,0,1-3.22,12.25c-19.34,20.09-67.76,19.95-80-.78-14.68-24.84-9.12-66.95,7-110.79L244.5,27.4Z" />
      <path class="cls-11"
        d="M214,148.29c-18.51,1.77-32.51-3.29-39.94-15.86-14.68-24.84-9.12-66.95,7-110.79L196.26,23l.46,2.08A51.83,51.83,0,0,1,201.15,47a39.11,39.11,0,0,0,20.39,9.86l5-.17-5.33,4-11.82-.82-11.64-3.87-11.36.19s-8,39.86-2,62.49,29.18,29.55,29.63,29.67Z" />
      <path class="cls-10"
        d="M185.8,143.82a30.47,30.47,0,0,1-11.69-11.39c-6.3-10.66-8.87-24.5-8.48-40.29.45.06,2.37-1.78,2.82-1.72-.35,17.72,3.65,43.86,17.36,53.41Z" />
      <path class="cls-10"
        d="M244.5,27.4c1.49,7.74,2,14.45,5.8,21.7l-2.44,5,.27,1.49-14.37,2.79c2.71-4.72,10.7-11.94,10.91-12.62-1.56-4.16-3-8.93-3-18.65l2.82.26Z" />
      <path class="cls-11"
        d="M248.42,53l-.56,1.16c3.44,18.85,7.46,35.66,12.05,52.7a29.09,29.09,0,0,1-18.37,35l-.24.08h0a17.9,17.9,0,0,0,10-21.89l-3.81-12.1-4.92,1-4-.81s.6-8.54-.73-8.46,4-.46-3.46-.7c-10.78.34-16.71-10.38-16.71-10.38l6.73,1.88,6-.41,6.72.72,3.13-4.55-.77-2.38-4-5.2S233.54,67.22,233,67.25s.72-3.87.72-3.87l5.81-5.94,8.5-4.54.37.06Z" />
      <path class="cls-10"
        d="M248,55.12c4.67,25.35,7,30.6,12.23,52.31a28.53,28.53,0,0,1,.36,11.45c-.26,1.53-.45,2.32-.32,1.42-5.93-22-8.88-34.63-13.61-57.32l.07-7.8,1.27-.07Z" />
      <path class="cls-11" d="M239,118.88c-6.52-5.3-15.68.49-12.4,8,3.48-4.49,8.3-7.33,12.4-8Z" />
      <path class="cls-10"
        d="M234,61.31l-2.36,1.31C229.07,70,230.26,80.93,234.51,88l1.87.45,2.41-2,.64-2.57L233.84,72.1l-.41-6.65.62-4.14Z" />
      <path class="cls-11"
        d="M239.59,88.37l.6-2.16c-7.48,2.55-15,4.63-23,2.25a13,13,0,0,0,7.4,3.81L237.49,92l2.1-3.61Z" />
      <path class="cls-4"
        d="M201.84,96.42c3.46,1.67,6.93,4.65,10.38,4.86,8.9.54,17-.53,26.78-3.71A28,28,0,0,0,241.07,110c-12.05,4.11-24.23,6.59-27.34,4.46-5.38-3.68-9.12-9.44-11.89-18.07Z" />
      <path class="cls-14"
        d="M207,102.32a25.2,25.2,0,0,0,8.23,10c2.74,1.7,16.27-2,22.5-4a30.21,30.21,0,0,1-1.29-7.29,70.49,70.49,0,0,1-24.34,2.8,12.84,12.84,0,0,1-5.1-1.56Z" />
      <path class="cls-15"
        d="M207,102.32a25.2,25.2,0,0,0,8.23,10c1,.61,3.35.52,6.28.06-3.89-2-5-4.73-2.8-8.42h0c-2.16.07-4.35,0-6.61-.1a12.83,12.83,0,0,1-5.1-1.55Z" />
      <path class="cls-15"
        d="M232.74,109.82c1.88-.52,3.6-1,5-1.45a30.25,30.25,0,0,1-1.29-7.29c-1.91.55-3.81,1-5.7,1.42,2.95,1.79,3.36,4.32,2,7.32Z" />
      <path class="cls-4"
        d="M237.46,59.25c1.85-1.17-.91-3.27,1-4.16,1.15-.54,5.71-.81,7.21-.87l2.2-.09.31,1.46c1.12,5.76-2,10.32-8.41,10.28-1.27.15.18-4.56-.91-4.83-3.22-.79-3.53,3.48-3.63.43l1.41-.59.84-1.63Z" />
      <path class="cls-14"
        d="M233.54,61.12s.1,4.08,2.87,4.75,7.2-.69,8.65-3.08.77-6.48.77-6.48-5.71.87-6.28,1.14-6,3.67-6,3.67Z" />
      <path class="cls-15"
        d="M236.17,65.8h0l.22.06c2.76.68,7.2-.69,8.65-3.08s.77-6.48.77-6.48l-1.66.26-.29.41c1.35,6.71-2.23,9.13-7.71,8.83Z" />
      <path class="cls-4"
        d="M236.24,58.43c2.49-.2,4.64,1.28,4.81,3.31s-1.71,3.85-4.2,4.05-4.64-1.28-4.81-3.31,1.71-3.85,4.2-4.05Z" />
      <path class="cls-14" d="M238.93,58.93a1.71,1.71,0,1,1-1.81,1.6,1.71,1.71,0,0,1,1.81-1.6Z" />
      <path class="cls-4"
        d="M233.55,60.24l-1.87,2.39c-.77,8.89,2.19,16.64,7.1,23.78-1.77,3.84-8.34,6.2-14.19,5.86,4.09,4.82,16.52,3.17,18.86-5.71C239,81,233.62,73.76,234,65.23a9,9,0,0,1,1.2-4.5l-1.63-.49Z" />
      <path class="cls-4"
        d="M231.68,62.63c1.38-6.14,9-10.61,18.61-13.53,2.22-.65,3.58,3.68,3.16,5.15a74.65,74.65,0,0,0-21.77,8.37Z" />
      <path class="cls-4"
        d="M213.19,58.56l2.34.52,3.08.44c-1.34,8.89-10.51,9.28-18.45,6.59-1.52-.51,2-4,.68-4.77l-1.09-.67-.14-1.27c-.12-1.1.2,3.29.08,2.19l-.13-1.14.75-.86c1.59-1.83-1.31-6,1.28-5.51,1.4.29,3.42,3.34,4.83,3.07,2.26-.43,4.49.41,6.76,1.42Z" />
      <path class="cls-14"
        d="M195.81,61.12l.37,3.29c7.15,4.35,18.68,2.58,19.86-5.28l-2-.2s-4.9-2.27-6.93-1.88a18,18,0,0,1-6-.43c-1.05-.22-5.26,4.49-5.26,4.49Z" />
      <path class="cls-15"
        d="M199.62,65.94c6.62,2.06,14.68.07,16.25-6l-4.11-.84-1.59,2c-1.23,3.88-4.8,5.44-10.55,4.85Z" />
      <path class="cls-16" d="M250.62,52.23a3.9,3.9,0,0,0-.2-.44A55.92,55.92,0,0,0,244.53,54q3-1,6.09-1.76Z" />
      <path class="cls-4" d="M200,57.25c2.94.19,5.2,2.28,5,4.68s-2.66,4.19-5.6,4-5.19-2.28-5-4.68,2.66-4.19,5.59-4Z" />
      <path class="cls-4"
        d="M186.69,48.9a7.7,7.7,0,0,0-.29,7.22c4.44,1,34.06,7.51,35.9,6.58,1.57-.8,3.69-4.41,4.26-6a18,18,0,0,1-3.73,1.76c-3.48,1-30.48-7.57-36.15-9.53Z" />
      <path class="cls-16"
        d="M205.62,57.55c-6.59-1.86-13.34-4-17.35-5.36a6,6,0,0,0,.14,1.72c5.35,1.2,10.73,2.33,16.1,3.41l1.11.23Z" />
      <path class="cls-4"
        d="M239.78,13.85c-5-1.69-41.66-3.69-57.12-6.13a8.77,8.77,0,0,0-9.56,5.55c-6.85,17.85-10.56,36.66-9.32,55.61.25,3.87,2,8,2.59,11.84.6-2.19,3.82-2,4.08-4.33,1.69-14.85,4.28-31.93,17.44-37.77-1.63-5.53-3.23-10.69-6.73-15.66a199.93,199.93,0,0,1,53.06,12.56S255.73,19.22,239.78,13.85Z" />
      <path class="cls-17"
        d="M243.61,10.18S214.71-3.38,181.85,7c-2.85.91-4.87,3.46-6,6.25-6.87,17.61-10.74,36.45-9.5,55.4a29.36,29.36,0,0,0,1.17,5.84,1,1,0,0,0,.15-.36c1.55-13.63,4.08-29.74,17.06-36.92A43.48,43.48,0,0,0,179,24.46l-3.28-4.67,5.68.58A204.41,204.41,0,0,1,233.9,32.6C251.93,23.48,243.61,10.18,243.61,10.18Z" />
      <path class="cls-18"
        d="M238.13,16.72c-11.38.78-46.38-6.29-58.77-8.34a9.22,9.22,0,0,0-2.73,3.31c19.37,2.68,49.14,7.26,61.49,5Z" />
      <path class="cls-19"
        d="M232.92,26.35s-25.18-7.33-41.18-9c-7.21-.74-12.9-1-17-1.11C168.68,32.8,165.3,50.37,166.34,68c.65.21,1.34.42,2.05.61,1.71-12.22,5.11-25.16,16.37-31.39A43.48,43.48,0,0,0,179,24.46l-3.28-4.67,5.68.58A204.41,204.41,0,0,1,233.9,32.6C240.11,28.36,232.92,26.35,232.92,26.35Z" />
      <path class="cls-14" d="M196.61,58.19a1.85,1.85,0,1,1-2,1.73,1.85,1.85,0,0,1,2-1.73Z" />
      <path class="cls-4" d="M208.37,96.17a6,6,0,0,0-6-.26,5.89,5.89,0,0,0-3.64,5.22c4.2-3.17,9.77-4.63,9.69-5Z" />
      <path class="cls-4" d="M239,118.88a8.72,8.72,0,0,0-12.4,8c3.48-4.49,8.3-7.33,12.4-8Z" />
      <path class="cls-4"
        d="M170.45,76.38c-1.35,6.08-2.05,14.11-6.76,18.82.63,1.9,2.7,3.29,1.06,3.66a13,13,0,0,1-4.2-.22C144.21,95.3,143.25,56,156.95,52.4c10.84-2.86,16.3,16.15,13.5,24Z" />
      <path class="cls-4" d="M238.08,110.26l3-.24c2.08-.7,4.34-1.56,6.37-2.09a17.15,17.15,0,0,0-9.74.43l.38,1.89Z" />
      <path class="cls-4" d="M233.69,99.92l2.05-1.36a67.24,67.24,0,0,0,6.6-2.25,13.58,13.58,0,0,1-8,5.32l-.69-1.72Z" />
      <path class="cls-4"
        d="M161.08,96.09c-13.79-2.82-14.29-38.31-3.46-41.16,9.14-2.41,14.67,14.43,12.68,19.55-1.27,5.53-1.08,15.6-6.1,19.16-.78.56,1.36,2.5.24,2.64a10.37,10.37,0,0,1-3.35-.19Z" />
      <path class="cls-11" d="M170.29,74.47s-4.11-19.12-12-17-7.9,33.79,3.32,36.09,8.69-19.06,8.69-19.06Z" />
      <path class="cls-12"
        d="M164.39,60.24c-1.69-2.12-3.72-3.42-6.11-2.79-5.56,1.47-7.21,17.56-3.8,27.8,0,.11,1.49,3.39,2.6,1.13s-.38-1.9-1.09-6.62.14-5.47.14-5.47l1.43-1.87,3.31-1.52a3.26,3.26,0,0,0,3-1.25c1.48-1.6.55-9.33.54-9.4Z" />
      <polygon class="cls-4"
        points="207.28 105.4 209.62 106.79 218.53 108.42 212.32 109.96 210.02 109.93 207.28 105.4 207.28 105.4" />
      <polygon class="cls-4"
        points="237.51 102.52 236.66 103.7 232.21 106.14 237.15 106.33 238.51 106.58 237.51 102.52 237.51 102.52" />
      <path class="cls-4"
        d="M164.89,79.66c-3.59-.58-5.12,1.11-5.54,4.54-1.37-2-1.12-7.24,2.59-6.69-1.38-4-2.24-6.24-5.82-3.23,3.64-8.38,8.52-.65,8.77,5.38Z" />
      <path class="cls-4"
        d="M83.49,268.35c12.3,3,44.77,29.32,56.12,37.76,7,8.29,2.57,18.79-6.38,22.94l-.54.25h-.6q-31.82-.54-63.63-1.32c-13.36-.34-26.73-.7-40.08-1.23-4.88-.19-9.76-.41-14.63-.71a72.12,72.12,0,0,1-8.36-.79l-1.59-.3-.43-1.56A20,20,0,0,1,2.71,316c.62-5.92,3.7-11.15,8.34-12.16,3.67-2.72,8.11-5.31,11.23-10.09,9.85-15.13,44.63-29.36,61.21-25.35Z" />
      <path class="cls-5"
        d="M82.26,273.41c12.9,3.13,55.8,34.79,55.8,34.79,4.29,8.47,2.35,14.64-5.93,18.48,0,0-114.91-1.86-126.27-4C-2.21,293.58,68,270,82.26,273.41Z" />
      <path class="cls-7"
        d="M82.26,273.41c12.9,3.13,55.8,34.79,55.8,34.79s-45.33-27.65-56.82-30.39-30.66,1.68-30.66,1.68c13.67-5,26.45-7.34,31.69-6.07Z" />
      <path class="cls-6"
        d="M140,313.66c1.1,5.71-1.51,10.06-7.89,13,0,0-114.91-1.86-126.27-4C.75,304.26,27,288,50.57,279.48c-32.22,39.48,81.71,41.72,84,40.58,5.54-2.81,5.49-6.25,5.48-6.4Z" />
      <path class="cls-7"
        d="M96.14,326c-34.74-.73-83.12-2-90.29-3.32C4,316,6.27,309.62,11,303.78h0S8.16,314.71,11,318.84,96.14,326,96.14,326Z" />
      <path class="cls-4"
        d="M261.05,315.81l-1.48,13.91-1.5.57c-26.35,10-52.66,9.69-76.56-5.91l-1.27-.83.88-14.78,3.71,2.29c22.76,14.05,47.3,14.45,72.37,6l3.85-1.29Z" />
      <path class="cls-20"
        d="M258,319.57l-.88,8.28c-28.59,10.82-53.32,8-74.21-5.66l.53-8.91c21.11,13,45.67,16,74.56,6.3Z" />
      <path class="cls-21" d="M258,319.57l-.88,8.28q-4.47,1.69-8.82,2.94l.74-8.58q4.41-1.11,9-2.64Z" />
      <path class="cls-21" d="M198.94,330.2a76.73,76.73,0,0,1-16-8l.53-8.91a81.62,81.62,0,0,0,16.74,7.93h0l-1.27,9Z" />
      <path class="cls-4"
        d="M437.38,247.37c-4.55-1.33-7.74-1.53-11.78-4.25-4.87-5.1-13.5-9-20.07-9.61-11.83-1-38.53-1-48.36,5.55-11.53,7.71-33.57,40.71-41.85,53.36l-.67,1-.14,1.22c-1.42,12.05,4.34,20.08,16.68,21.11l1.2.1,1.12-.43q29.68-11.5,59.3-23.17c12.44-4.93,24.87-9.88,37.24-15,4.53-1.87,9.06-3.76,13.55-5.73a70.93,70.93,0,0,0,7.86-3.77l2.79-1.66-.26-3.24a23.67,23.67,0,0,0-2.22-8.11C448.76,248.4,437.38,247.37,437.38,247.37Z" />
      <path class="cls-4"
        d="M283,295.38q-2.73.82-5.46,1.61a4.12,4.12,0,0,0-2.61,2.07c-1.58,3.11,1,5.69,2,8,.51,2.46,4.42,3.17,7,3.55.06,3,2.72,7.46,4.25,8.49,2,1.36,4.53,1,6.46,1.7a19,19,0,0,1,1.6,1.56,17.52,17.52,0,0,0,4.8,3.21c5.49,2.54,26.74-9.56,32.18-12.71l.65-.38,6.51-12.38-19.93-7.3a121.51,121.51,0,0,0-9.77-7.28c-2.59-1.57-16.24-2.92-19-1.73-2.93,1.29-6.3,6.66-7.74,9.58l-1,2Z" />
      <path class="cls-4"
        d="M274.45,307.85c.83,3.16,4.17,4.39,7.22,5,.79,3.12,2.89,6.92,5.05,8.39,2.59,1.76,4.44,1.15,6.62,1.85.38.36.74.8,1.11,1.15a20.17,20.17,0,0,0,5.5,3.68c6.94,3.21,28.09-9.06,34.58-12.82l1.3-.75,8.25-15.68-22.34-8.18a104.08,104.08,0,0,0-9.7-7.2c-3.36-2-17.78-3.46-21.35-1.88s-7.29,7.28-9,10.81l-.48,1-4.35,1.28a6.71,6.71,0,0,0-4.21,3.39c-2.19,4.31.37,6.58,1.82,10Z" />
      <path class="cls-12"
        d="M336.71,301.52l-4.78,9.08s-25.44,14.61-29.78,12.6-5-4.23-6.52-4.82-4.86-.68-6-1.45-3.92-6.52-3-6.53,4-.17,5-1.42c0,0-11.89-1.23-12.15-2.48s-4.31-6.13-1.2-7,24.13-7.34,24.13-7.34c-5.56-.73-10.71,1.58-16.07,2.38,0,0,3.69-7.12,6.45-8.34s15.8,1.12,16.55,1.57,9.84,7.36,9.84,7.36l17.51,6.41Z" />
      <path class="cls-11"
        d="M328.15,312.71c-.38.16-12.51,5.26-16.79,6.07s-7.7.33-7.92-.51,2.88-3.08,2.88-3.08l-8.57,1.58s-4.4-3.24-4.66-4,5.95-4,5.95-4-11.45-2.64-12.7-3.35-2.35-2.66-2.77-4.51,18.23-8.59,18.84-8.81c-.65.2-21.05,6.46-24.12,7.34s.94,5.78,1.2,7S291.64,309,291.64,309c-1,1.25-4.09,1.41-5,1.42s1.89,5.76,3,6.53,4.46.86,6,1.45,2.18,2.81,6.52,4.82c3.29,1.53,18.74-6.53,26-10.49Zm-31.84-20.34c-.08,0-2.82-1.2-3.34-1.51s-.16-4.67-.16-4.67c-2.76,1.22-6.45,8.34-6.45,8.34,3.34-.5,6.61-1.58,9.95-2.15Z" />
      <path class="cls-4"
        d="M357.17,239.06c-10.52,7-31.92,43-39.67,54.79-3.7,10.19,4.07,18.52,13.9,19.33l.6,0,.56-.22q29.68-11.48,59.28-23.16c12.43-4.92,24.85-9.87,37.2-15,4.51-1.86,9-3.75,13.49-5.71a72.12,72.12,0,0,0,7.58-3.62l1.39-.83-.13-1.62c-.21-2.51-1.6-4.69-2-7.18-.63-4.29-7.31-9.19-12-8.54-4.38-1.29-7.51-5.78-12.08-9.2-14.47-10.81-54-8.59-68.13.89Z" />
      <path class="cls-5"
        d="M360.06,243.39c-11,7.38-40.39,51.88-40.39,51.88-1.11,9.43,2.84,14.55,11.93,15.3,0,0,107.23-41.35,117.15-47.28-2.46-30.09-76.49-28.08-88.7-19.91Z" />
      <path class="cls-7"
        d="M360.06,243.39c-11,7.38-40.39,51.88-40.39,51.88s33-41.58,42.86-48.11,29.36-9,29.36-9c-14.54.06-27.36,2.22-31.84,5.22Z" />
      <path class="cls-6"
        d="M319.71,301.08c.94,5.74,4.89,8.92,11.9,9.5,0,0,107.23-41.35,117.15-47.28-1.56-19-31.78-25.23-56.86-25.13,43.86,26-62.33,67.33-64.84,67-6.17-.73-7.3-4-7.35-4.12Z" />
      <path class="cls-7"
        d="M365.16,297.54c32.36-12.66,77.35-30.5,83.61-34.24-.56-6.9-4.89-12.11-11.38-16h0s6.48,9.25,5.24,14.11-77.46,36.06-77.46,36.06Z" />
      <path class="cls-4"
        d="M179.45,305.18,179,324.83l2.83,1.51c25.52,13.58,52.53,16.75,79.05,3.88l2.72-1.32,1.4-20.63-7.94,3.6c-23.72,10.76-47.34,8-70.34-3.15l-7.31-3.54Z" />
      <path class="cls-4"
        d="M280.54,481.23l1.57.77.36-3.75c.08-.88.57-4.06,1.43-4.77.89.42,2.06,2.89,2.36,3.62l4.29,10.58.72-11.39c.22-3.46-1.48-9.73-2.19-13.35-1.57-7.94-3.21-15.87-4.86-23.79s-3.35-16-5-24c-.81-3.84-1.74-7.66-2.42-11.47-.66-4.25-7.39-6.66-10.87-8.22-2.76-1.24-5.55-2.4-8.34-3.57l-3.82-1.6-2.42,3.37c-6.37,8.86-8.73,21.8-5,32.17,3.17,8.82,8.56,17.68,13.3,25.77q8.32,14.2,17.27,28l.4.62.39.6.65.32a2.44,2.44,0,0,0,2.21.07Z" />
      <path class="cls-4"
        d="M276.86,474c-3.49,4.52-7.82,12.37-3.86,17.71,2.58,3.49,13.61,8.74,17.86,10.78,4,1.92,8.08,3.77,12.25,5.32,4,1.49,10.4,3.66,12.51-1.81,1.47-3.82-2-7.69-4.23-10.42-2.73-3.31-5.63-6.48-8.54-9.63q-6.29-6.79-12.78-13.39l-7.25-10L276.86,474Z" />
      <path class="cls-4"
        d="M279.07,475.38c-2.76,3.53-7,10.61-4,14.75,2.13,2.88,13.45,8.33,16.89,10,3.92,1.87,8,3.71,12,5.23,2.38.89,7.82,3.21,9.17-.3.95-2.47-2.37-6.07-3.81-7.83-2.69-3.26-5.57-6.42-8.44-9.52q-6.32-6.82-12.86-13.47l-4.89-6.73-4.11,7.9Z" />
      <path class="cls-9"
        d="M283.54,472.42l2.53,3.48s25.54,25.94,24.68,28.19-31-12.12-33.56-15.52,4.08-11.77,4.08-11.77l2.28-4.38Z" />
      <path class="cls-8"
        d="M310.13,502.53c.49.77.72,1.31.62,1.56-.86,2.25-31-12.12-33.56-15.52s4.08-11.77,4.08-11.77-.92,7.53.16,9.83,28.62,15.86,28.71,15.9Z" />
      <path class="cls-4"
        d="M254.74,319.59l-24,4.22a16,16,0,0,1-4.48-.44c-3.72-.63-7.46-.83-10.09,2.42-5.55,6.87-7.37,19.17-5.64,27.74,1.6,7.9,31.74,42.28,38.38,49.65,2.83,3.14,9.31,11.06,14,8.71a28.89,28.89,0,0,1,3.13,2c5.69,3.29,12.57-.14,13-6.61.2-3.22-1.54-11.2-2.15-14.52-1.59-8.71-3.3-17.4-5-26.09q-4-20-8.17-40l-.15-.71-.48-.52q-1.29-1.4-2.6-2.77c-1.3-1.34-3.53-4.15-5.72-3.09Z" />
      <path class="cls-4"
        d="M253.43,395.19c-5.89,8.18-8.09,20.23-4.67,29.77,3,8.21,8.66,17.77,13.09,25.33,5.51,9.42,11.29,18.75,17.22,27.92l.39.61c.22.11.18-.92.4-.81.84-8.78,5.67-9.59,8.8-1.89.16-2.44-1.64-10.1-2.15-12.68-1.56-7.93-3.21-15.85-4.85-23.76s-3.35-16-5-24c-.81-3.83-1.76-7.8-2.44-11.61-.43-2.73-7.12-5.24-9.36-6.24-2.74-1.23-5.5-2.4-8.28-3.55l-1.91-.8-1.21,1.68Z" />
      <path class="cls-22"
        d="M255.55,396.71s-9.47,13.07-4.33,27.36,30,52.72,30,52.72,4.61,2.16,4.8-.85-14.25-70.14-14.46-71.45-16.06-7.79-16.06-7.79Z" />
      <path class="cls-23"
        d="M255.55,396.71s-9.47,13.07-4.33,27.36,30,52.72,30,52.72S257.8,434.61,258.41,425a49.29,49.29,0,0,1,3.37-15.72l-.07-10c-3.3-1.44-6.16-2.61-6.16-2.61Z" />
      <path class="cls-24" d="M286.07,475.9c0-3.05-10.33-51.8-13.53-67l-1.41,3.67,14.94,63.28Z" />
      <path class="cls-4"
        d="M275.87,437.4a10.76,10.76,0,0,1-3.57,0c-5.21-.73-14.21-8.31-17.95-12l-9.73-9.62,5.51,12.52a221,221,0,0,0,11.72,21.94c5.51,9.4,8,12.84,13.94,22l.39.6.65.32c2.3,1.12,7.44-.53,10.15-.44,1,0,1.6,4.71,1.68,3.39.16-2.44-1.64-10.1-2.15-12.68-1.56-7.93-3.21-15.85-4.85-23.77l-.6-2.89-.52-2.49h0l0-.17-2.65,0a5.79,5.79,0,0,1-2,3.27Z" />
      <path class="cls-9"
        d="M252.52,427.28c.09.09,11.88,11.66,19.42,12.71,6.84,1,6.67-2.1,6.58-2.69,3.77,18,7.66,37.08,7.56,38.65-.19,3-4.8.85-4.8.85s-21.66-33.41-28.75-49.51Zm26,10,0-.1v.09Z" />
      <path class="cls-8"
        d="M252.52,427.28h0c.44,1,.94,2.07,1.49,3.2l.42.86h0l.43.87,0,.08.42.82.47.91.11.21.37.72.15.28.35.66.19.36.32.6.23.43.29.54.28.51.26.47.52,1,0,0,.37.66.19.34.41.74.15.27.18.32.39.7.51.9.07.12.56,1,0,0,.59,1,0,0,.58,1,.06.1.54.93.1.18.5.85.15.25.46.78.19.33.41.7.24.4.37.62.28.47.33.55.32.54.28.47.37.61.24.39.41.68.19.32.45.75.15.24.49.81.1.17.53.87.06.1.56.93,0,0,.57.94,0,0,.54.88.07.1.49.8.1.17.45.72.14.23.4.64.18.29.35.57.21.34.31.49.24.39.26.42.27.43.22.35.3.48.18.28.32.51.14.22.34.55.1.16.36.57.07.11.37.59,0,.06.39.61h0l.37.59,0,0,.33.52,0,.07.29.45.07.1.24.38.08.13.21.32.1.15.27.43.14.21.11.17.11.16.11.17.08.12.11.16.06.09.1.15,0,.06.09.13,0,0,.07.1h0l0,.07h0l0,0s-15-26.92-20.68-42.65a88.19,88.19,0,0,1-8.06-6.87Z" />
      <path class="cls-4"
        d="M255.8,322c-.14-.82,5.35,5.16,5.35,5.16s15.63,74.76,15.3,79.93a5.86,5.86,0,0,1-9.08,4.52c-1.68-1-3.5-3-5.33-2.14-2.22,1.07-5.79-2.1-11.17-8.07-14.27-15.85-36.65-42.92-37.76-48.43-.79-3.91-1.57-17.31,5.11-25.58,3.1-3.84,9.05-.36,13-1.05L255.8,322Z" />
      <path class="cls-22"
        d="M255.26,324.79c1.11,1,2.45,2.53,3.48,3.66q4.12,19.6,8,39.26c1.71,8.6,3.41,17.21,5,25.84.55,3,2.21,10.55,2.1,13.42-.17,2.66-4.14,4.51-6.48,4.68a6,6,0,0,1-3.91-1c-6.37-4.39-46.62-52.36-47.8-58.2-.83-4.13,3.75-19.9,5.06-24.33.3-1,.85-2.39,2-2.64,2-.41,5.33,1.63,6.78,2.84l.93.79,24.81-4.37Z" />
      <path class="cls-23"
        d="M261.78,409.28c-9.29-8.62-41.29-46.87-45.65-55.59l22.28.65,5.11,9c1.42,15.43,8.39,30.71,18.26,45.91Z" />
      <path class="cls-24"
        d="M255.26,324.79c1.11,1,2.45,2.53,3.48,3.66q4.12,19.6,8,39.26c1.71,8.6,3.41,17.21,5,25.84.55,3,2.21,10.55,2.1,13.42-.14,2.13-2.71,3.74-4.93,4.39h0s2.46-1.09,3-5.48S254,330.41,254,330.41l-4.88-4.12.86-.58,5.28-.93Z" />
      <path class="cls-4"
        d="M263.24,311.05l-2.08,19.54-3,1.14c-27,10.24-54.23,10-78.91-6.17l-2.53-1.65.71-11.93a5.21,5.21,0,0,1,7.94-4.13h0c22.16,13.68,45.94,13.92,70.17,5.79l7.7-2.58Z" />
      <path class="cls-4"
        d="M140.66,472.87l-1.65.56.12-3.76c0-.89-.05-4.1-.82-4.92-.94.31-2.41,2.61-2.8,3.29l-5.6,9.95.72-11.39c.22-3.46,2.7-9.47,3.86-13,2.56-7.68,5.19-15.33,7.83-23s5.35-15.43,8-23.14c1.29-3.71,2.7-7.38,3.85-11.08,1.2-4.13,8.17-5.67,11.82-6.78,2.89-.88,5.81-1.68,8.72-2.49l4-1.1,2,3.65c5.19,9.6,5.89,22.74.89,32.54-4.26,8.34-10.73,16.45-16.45,23.88q-10,13-20.69,25.61l-.47.56-.47.55-.68.23a2.44,2.44,0,0,1-2.21-.21Z" />
      <path class="cls-4"
        d="M145.23,466.13c2.88,4.93,6.19,13.26,1.59,18.06-3,3.13-14.61,6.95-19.08,8.43-4.23,1.4-8.49,2.71-12.83,3.73-4.15,1-10.78,2.32-12.18-3.38-1-4,2.94-7.38,5.52-9.8,3.13-2.94,6.4-5.72,9.69-8.47q7.1-5.94,14.37-11.66l8.46-9,4.45,12.09Z" />
      <path class="cls-4"
        d="M142.86,467.25c2.29,3.85,5.64,11.41,2.07,15.13-2.48,2.59-14.4,6.56-18,7.76-4.12,1.36-8.37,2.67-12.6,3.66-2.47.58-8.16,2.2-9.05-1.46-.63-2.57,3.12-5.73,4.77-7.28,3.08-2.89,6.34-5.66,9.58-8.37q7.13-6,14.46-11.73l5.7-6.06,3.08,8.35Z" />
      <path class="cls-9"
        d="M138.8,463.75l-2.95,3.13s-28.62,22.5-28.05,24.83,32.33-8.09,35.26-11.14-2.55-12.2-2.55-12.2l-1.7-4.63Z" />
      <path class="cls-8"
        d="M108.61,490.25c-.58.7-.88,1.21-.81,1.47.57,2.34,32.33-8.09,35.26-11.14s-2.55-12.2-2.55-12.2,0,7.59-1.4,9.73-30.4,12.11-30.49,12.14Z" />
      <path class="cls-4"
        d="M186.74,315.8,210,323a16,16,0,0,0,4.5.14c3.77-.15,7.51.12,9.7,3.67,4.63,7.52,4.88,19.95,2.08,28.23-2.58,7.63-36.84,37.91-44.36,44.39-3.2,2.76-10.63,9.79-15,6.87a28.89,28.89,0,0,0-3.36,1.6c-6.06,2.54-12.46-1.73-12-8.2.2-3.22,2.94-10.91,4-14.14,2.68-8.44,5.48-16.84,8.3-25.24Q170.27,341,177,321.69l.24-.69.54-.45c1-.81,1.94-1.62,2.93-2.41,1.46-1.17,4-3.67,6.07-2.34Z" />
      <path class="cls-4"
        d="M178.45,391c4.81,8.86,5.47,21.09.86,30.12-4,7.77-10.84,16.53-16.2,23.47-6.66,8.64-13.58,17.17-20.61,25.52l-.47.55c-.23.08-.06-.94-.29-.86.28-8.82-4.41-10.24-8.49-3,.16-2.44,2.9-9.81,3.74-12.31,2.56-7.67,5.19-15.31,7.83-23s5.35-15.43,8-23.14c1.29-3.69,2.74-7.51,3.89-11.21.77-2.65,7.73-4.3,10.07-5,2.87-.87,5.76-1.69,8.66-2.47l2-.55,1,1.82Z" />
      <path class="cls-22"
        d="M176.16,392.2s7.73,14.17.83,27.69-36.48,48.49-36.48,48.49-4.85,1.56-4.66-1.45,23-67.77,23.39-69,16.92-5.69,16.92-5.69Z" />
      <path class="cls-23"
        d="M176.16,392.2s7.73,14.17.83,27.69-36.48,48.49-36.48,48.49,28.62-38.88,29.23-48.48a49.29,49.29,0,0,0-1.35-16l1.33-9.87c3.46-1,6.44-1.81,6.44-1.81Z" />
      <path class="cls-24" d="M135.85,466.88c.34-3,16.81-50.07,21.9-64.7l.93,3.82-22.84,60.88Z" />
      <path class="cls-4"
        d="M150.85,430a10.76,10.76,0,0,0,3.54.47c5.26-.06,15.15-6.44,19.32-9.62l10.87-8.31-7.06,11.72a221,221,0,0,1-14.4,20.28c-6.65,8.63-9.56,11.72-16.61,20l-.47.55-.68.23c-2.43.82-7.32-1.47-10-1.72-1-.1-2.18,4.47-2.1,3.15.16-2.44,2.91-9.81,3.74-12.31,2.56-7.67,5.19-15.32,7.83-23l1-2.79.83-2.4h0l.06-.16,2.62.35a5.79,5.79,0,0,0,1.55,3.49Z" />
      <path class="cls-9"
        d="M175.29,422.91c-9.07,15.07-34.79,45.47-34.79,45.47s-4.85,1.56-4.66-1.45c.1-1.57,6.37-20,12.39-37.38-.17.58-.73,3.58,6.18,3.5,7.6-.09,20.77-10.07,20.87-10.15Zm-27.05,6.65h0v-.09l0,.09Z" />
      <path class="cls-8"
        d="M175.29,422.91h0c-.57.94-1.19,1.94-1.88,3l-.53.8h0l-.54.8,0,.07-.52.76-.58.85-.14.2-.46.66-.18.26-.43.61-.23.33-.39.55-.29.4-.36.5-.34.47-.32.44-.64.88,0,0-.45.61-.23.31-.51.68-.18.24-.22.29-.48.64-.62.83-.08.11-.68.9,0,0-.72.95,0,0-.7.92-.07.1-.65.85-.13.16-.6.78-.18.23-.55.71-.23.3-.5.64-.29.37-.45.57-.34.43-.39.5-.39.5-.34.43-.44.56-.29.36-.49.62-.23.29-.54.68-.18.22-.59.74-.12.16-.63.79-.07.09-.68.85,0,0-.69.86,0,0-.65.81-.08.1-.59.73-.12.15-.53.66-.17.21-.48.59-.21.26-.42.52-.25.31-.37.45-.29.35-.31.38-.32.4-.26.32-.36.43-.21.26-.39.47-.17.2-.41.5-.12.15-.43.52-.08.1-.45.54,0,.05-.46.56h0l-.45.54,0,0-.4.48-.05.06-.34.41-.08.09-.29.35-.1.12-.24.29-.11.14-.32.39-.16.19-.13.16-.13.15-.13.16-.09.11-.13.15-.07.08-.12.14,0,.05-.1.12,0,0-.08.1h0l-.05.06h0l0,0s18.26-24.8,25.92-39.68a88.19,88.19,0,0,0,8.87-5.79Z" />
      <path class="cls-4"
        d="M185.37,318.11c.24-.8-6,4.44-6,4.44s-25,72.18-25.3,77.34a5.86,5.86,0,0,0,8.44,5.63c1.79-.75,3.86-2.56,5.56-1.45,2.06,1.35,6-1.35,12.1-6.59,16.17-13.92,41.79-37.93,43.59-43.25,1.28-3.78,3.75-17-1.83-26-2.59-4.2-8.93-1.5-12.76-2.69l-23.85-7.41Z" />
      <path class="cls-22"
        d="M185.55,320.89c-1.23.85-2.76,2.2-3.92,3.19Q175.07,343,168.72,362c-2.79,8.31-5.57,16.64-8.22,25-.93,2.93-3.53,10.19-3.78,13-.17,2.66,3.54,5,5.84,5.47a6,6,0,0,0,4-.46c6.87-3.55,52.88-46,54.79-51.67,1.35-4-1.2-20.21-1.93-24.78-.17-1.06-.54-2.48-1.68-2.88-1.91-.66-5.49.95-7.08,2l-1,.67-24.06-7.48Z" />
      <path class="cls-23"
        d="M168.39,403.88c10.31-7.38,46.9-41.25,52.33-49.35l-22.19-2.17-6.21,8.3c-3.36,15.13-12.21,29.4-23.93,43.23Z" />
      <path class="cls-24"
        d="M185.55,320.89c-1.23.85-2.76,2.2-3.92,3.19Q175.07,343,168.72,362c-2.79,8.31-5.57,16.64-8.22,25-.93,2.93-3.53,10.19-3.78,13-.14,2.13,2.21,4.05,4.33,5h0s-2.3-1.39-2.26-5.81,27.31-72.59,27.31-72.59l5.36-3.47-.78-.68-5.12-1.59Z" />
      <path class="cls-4"
        d="M204.25,351.89l-6.93-25.59L224,322.12l4.61,16.55a7.48,7.48,0,0,1,2.78,5.45c.34,5.11,8.51,6.2,6.38,10.45-6.18,12.34-34.07,12-45.49,6.08l11.93-8.76Z" />
      <path class="cls-22"
        d="M192.32,360.65s34.62,4.34,45.49-6.08,4.77-14.83,4.77-14.83l-19.24-14.88-23.86,3.74-7.15,32Z" />
      <path class="cls-4"
        d="M260.22,314.82l-1.48,13.91-1.5.57c-26.35,10-52.66,9.69-76.56-5.91l-1.27-.83.88-14.78,3.71,2.29c22.76,14.05,47.3,14.45,72.37,6l3.85-1.29Z" />
      <path class="cls-20"
        d="M257.2,318.58l-.88,8.28c-28.59,10.82-53.32,8-74.21-5.66l.53-8.91c21.11,13,45.67,16,74.56,6.3Z" />
      <path class="cls-21" d="M257.2,318.58l-.88,8.28q-4.47,1.69-8.82,2.94l.74-8.58q4.41-1.11,9-2.64Z" />
      <path class="cls-21" d="M198.1,329.21a76.73,76.73,0,0,1-16-8l.53-8.91a81.62,81.62,0,0,0,16.74,7.93h0l-1.27,9Z" />
      <path class="cls-4"
        d="M177.62,309.19,177,324.41l1.53.85c26.84,14.85,55.22,18.65,83.4,5.56l1.49-.69.36-16.12-3.36,2c-26.71,11.59-53.22,8.2-78.91-4.77l-3.95-2Z" />
      <path class="cls-9"
        d="M180.29,313.72l-.34,9.05c29.11,16.11,56.21,16.91,80.84,5.47l.82-9.68c-24.78,10.75-51.7,10.11-81.31-4.84Z" />
      <path class="cls-8" d="M180.29,313.72l-.34,9.05q4.55,2.52,9,4.54l.54-9.36q-4.58-1.89-9.24-4.24Z" />
      <path class="cls-8"
        d="M242.29,334.39a83.53,83.53,0,0,0,18.49-6.15l.82-9.68a88.85,88.85,0,0,1-19.27,5.93h0l0,9.9Z" />
      <polygon points="253.65 51.99 267.62 54.85 267.4 58.24 253.3 54.86 253.65 51.99" />
      <path class="cls-25"
        d="M183.23,64.3c1.54,1.34,1.9,5.48,1.9,5.48C187.26,81.52,193,84.11,202,83.64s10.93-2.58,13.41-4.76,4.1-9.56,4.8-12.19,4.59-3.08,4.59-3.08,3.92,0,4.88,2.58,3.34,9.71,6,11.63,4.8,3.81,13.83,3.34S264,77.53,264.88,65.63c0,0-.07-4.16,1.32-5.65s2.12-1.53,2.06-2.7,1.94-3.14-4-3.27-8.84-.62-15.14-.29-16.27.92-17.87,2.69-3.6,2.39-7.11,2.57-4.78-.27-6.56-1.86-11.76-1.15-18.05-.82-9.14,1.11-15,1.86-3.69,2.49-3.63,3.66S181.69,63,183.23,64.3Zm53-6.43c5.33-1.94,18.58-3.17,24.54-1.52,0,0,2.43.51,2.55,3.83S262.46,70.8,261.59,73,260,79,249.23,79.86s-14.73-4.67-16.17-9.78S230.86,59.82,236.19,57.88Zm-47.6,2.23c5.76-2.26,19.06-2.41,24.56-1s5.28,6.58,4.38,11.81S213.27,82,202.47,82.29s-11.93-3.54-13-5.59-2.78-9.2-3-12.52S188.59,60.11,188.59,60.11Z" />
      <polygon class="cls-25" points="180.74 59.38 172.23 55.49 171.91 60.63 183.23 64.3 180.74 59.38" />
      <path class="cls-26"
        d="M578.62,592.11c.36-4.65,6-7.71,11.69-9.51,22-6.93,73.26-.42,86.64,10.29-15.38-32.43-19.87-51.51-26.08-83.37L579,505.15l-6.6,40.27-3.51,26Z" />
      <path class="cls-27"
        d="M646.4,543.07c1.74,3.38,6,6.47,10.52,7.65,8,2.13,14.4,5.08,22.37,7.21,1.82-10.56-7.17-18.16-15.44-25.95-2.87-3-5.2-5.91-8.07-8.92-4,.42-7.32.39-11.29.81C646.38,529.7,644.51,537.23,646.4,543.07Z" />
      <path class="cls-28"
        d="M646.4,543.07c1.74,3.38,6,6.47,10.52,7.65,2.48.66,4.8,1.4,7.07,2.18l1.85-1.83c-4.82-2.67-9.18-5.74-12.14-10.08.46-2.61-.13-6.12-.94-9.23l-7.28,4.88A23.3,23.3,0,0,0,646.4,543.07Z" />
      <path class="cls-4"
        d="M645.48,543.55l0,.07,1.09-5.32c-.11-1.57-.12-3.2-.12-4.82a38.39,38.39,0,0,0-.66-8.68c1.5-.13,2.93-.21,4.37-.28,1.69-.09,3.37-.18,5.19-.36,1.26,1.34,2.46,2.7,3.66,4.06h.28l0,.28c1.21,1.38,2.44,2.76,3.83,4.22l0,0,1.55,1.45c7.28,6.81,14.56,13.62,13.73,22.42-3.5-1-6.73-2.13-10-3.27-3.62-1.28-7.24-2.56-11.26-3.63h0a18,18,0,0,1-6-2.83,32.4,32.4,0,0,1-3-2.28l-.1,2,.21.6a18.2,18.2,0,0,0,1.63,1.34,20.08,20.08,0,0,0,6.65,3.16h0c4,1.06,7.53,2.32,11.11,3.58s7.24,2.56,11.26,3.63l1.1.29.19-1.13c1.8-10.45-6.21-17.95-14.21-25.43l-1.52-1.43c-1.38-1.45-2.68-2.93-4-4.41s-2.58-2.93-4.06-4.49l-.35-.37-.51.05c-2,.21-3.78.3-5.59.4s-3.69.2-5.7.41l-1.28.13.39,1.22c.9,2.77.9,6,.91,9.28,0,3.42,0,6.85,1,9.92l0,.09Z" />
      <path class="cls-29"
        d="M645.28,553.64a12.28,12.28,0,0,1,6.93,3.77,16.79,16.79,0,0,0,2.7-6c14.1-5,23.24-4.1,27.53,5.2-12.91,11.22-21.95,18.41-39.51,18.5-2.35-7-1.4-10.53-3.75-17.55Z" />
      <path class="cls-30"
        d="M645.28,553.64a12.28,12.28,0,0,1,6.93,3.77c1.2-1.85,1.6-1.9,2.29-4.73a64.47,64.47,0,0,1,6.73-2,19.53,19.53,0,0,1-8,11.27,5.45,5.45,0,0,1,.07,3.31c-2.8-1.56-5.59-3.05-8.39-2.43l-5.21-3.41c-.16-.6-.35-1.21-.56-1.85Z" />
      <path class="cls-4"
        d="M645.45,552.61a12.26,12.26,0,0,1,3.7,1.22,14.39,14.39,0,0,1,2.86,2,16.21,16.21,0,0,0,.81-1.47,15.72,15.72,0,0,0,1.09-3.17l.13-.55c11.35-3.54,23.91-6.39,29.68,6.27l-.59.51c-12.83,11.15-22.07,18-40.05,18.13l-1,1.33-.24-.71A41.24,41.24,0,0,1,640,566.8a39.56,39.56,0,0,0-1.75-8.91l-.26-.77,7.11-4.57.39.06Zm.28,1.58-5.3,3.81a42.71,42.71,0,0,1,1.6,8.57,41.12,41.12,0,0,0,1.52,8.19,41.73,41.73,0,0,0,20.31-5.29c5.82-3.23,11.63-8.22,17.78-13.57-5.13-10-17.84-7.33-26.44-4.33a16.21,16.21,0,0,1-3.14,6.56C650.09,556.15,648.54,554.76,645.73,554.2Z" />
      <path class="cls-31"
        d="M581.18,504c-14,24.19-35.88,80.59-.7,99.41-5.35-28.87-8.76-70,12.13-97.15C589.47,504.34,584.33,505.91,581.18,504Z" />
      <path class="cls-27"
        d="M562.15,557.55c-2.36,18.82,1.29,36.74,18.33,45.86-2.93-15.83-5.28-35.35-3.36-54.23A77.26,77.26,0,0,1,562.15,557.55Z" />
      <path class="cls-32"
        d="M580.47,602.06a249.09,249.09,0,0,1-3.91-27.25c-.92-10.55.62-21.73-.29-25.79-4.26,15.25-1.06,45.23.82,50.76A6.88,6.88,0,0,0,580.47,602.06Z" />
      <path class="cls-4"
        d="M581.6,505.37q-.86,1.52-1.73,3.14c-6.81,12.73-14.61,31.69-16.75,49.73-2.08,17.49,1.18,34.1,15.95,43.16-2.5-14.06-4.43-30.76-3.39-47.28,1.07-17,5.31-33.87,15.34-47.45a16.61,16.61,0,0,0-4.15-.5,15.78,15.78,0,0,1-5.26-.8ZM578,507.53q1.17-2.19,2.25-4.05l.53-.92.91.55c1.34.82,3.28.9,5.22,1,2.21.09,4.42.18,6.22,1.28l1,.6-.71.92c-4.18,5.43-8.27,11.28-10.82,17.64-3.74,9.31-5,19.52-5.68,29.68-1.09,17.25.89,33.11,4,50C547.4,588,563,535.68,578,507.53Z" />
      <path class="cls-27"
        d="M580.86,512.78c-3.68,2.13-17.31-.1-18.8,9.44,22.35-6.51,21.27,14,21.93,13.86,10.94,5.86,19.3,13.35,23.05,23.79-.6,14.7-2.92,28.54-8.09,41l16.19,2.45a50.87,50.87,0,0,0,13.24-20.6,50.73,50.73,0,0,1,6.38,22.07L648,592.48c1-9.68-1-20.4-3.92-31.39,1.16-6.22,5.08-16.31,4.12-20.89,3.38-3.36,4.62-8.62,3.73-11,4.07-1.41,8-1.7,11.77.49-7.49-16.9-33.91-10-41.4-10.4-5.26-4.42,10-5.67,5.1-7.31-10-1-12-.2-22-1.18-3.11,2-7.54-1.81-10.64.15C590.4,511.49,584.92,510.78,580.86,512.78Z" />
      <path class="cls-28"
        d="M628.39,582.67A50.58,50.58,0,0,1,634.63,603l3.86-1.71,1.39-1.29a50.38,50.38,0,0,0-7.64-20.32Z" />
      <path class="cls-28"
        d="M615.3,603.12A49.63,49.63,0,0,0,627.08,586l.51-4.64c-2.53-1.57-3.22-3.51-4.54-6.63-4.48,12.5-8.35,18.82-14,22.88Z" />
      <path class="cls-28"
        d="M580.86,512.78l-.31.16-12.85,6.55s12.78,2.64,20.36,8.4c3.95,6.24,10.28,12.27,21.41,14.62,4.36,5,6,10.46,5.22,16.26a14.1,14.1,0,0,0-4.34.22c11,2.11,16.6,7.19,20.55,13,.41-4.9.16-9.53.56-14.44L615.37,524.4l-22.62-6.2q.41-1.34.69-2.65Z" />
      <path class="cls-4"
        d="M579.72,537.44c2.9-3.29,4.13-4.25,7.85-8.87a21.73,21.73,0,0,1-3.5,6.36l.41.22A61.37,61.37,0,0,1,599,545.51a37.53,37.53,0,0,1,9.07,14l.07.19v.2a147.1,147.1,0,0,1-2.35,21.49A100.94,100.94,0,0,1,600.42,600l14.38,2.18a46.4,46.4,0,0,0,7.31-8.89,64.14,64.14,0,0,0,5.48-11.91l5.32-2.41-3.38,3.66A48.92,48.92,0,0,1,634,593.8a51.85,51.85,0,0,1,1.58,8.72L647,592a61.36,61.36,0,0,0-.52-14.56c-.74-5.22-1.27-11.53-2.71-17l-.76.69,0-.23q.06-.35.14-.71l2-1c-.06.28.06.41.13.85a158.88,158.88,0,0,1,3.22,17.06,62.77,62.77,0,0,1,.49,15.46l0,.38-15.14,14-.13-2.19A50.87,50.87,0,0,0,632,594.34a58.07,58.07,0,0,0-3.51-10.06c-3.33,8.3-6,13.52-12.69,19.75l-.37.34-18-2.73.51-1.23A97.78,97.78,0,0,0,603.7,581,144.76,144.76,0,0,0,606,560a35.53,35.53,0,0,0-8.51-13,58.92,58.92,0,0,0-13.67-9.83l-.75-.41-.55.6" />
      <path class="cls-29"
        d="M571.17,506.1a20.65,20.65,0,0,0-10.52,15.75c10.36-5,19.72-2.93,29.76,5.38,3.72,7.68,11.37,11,20.34,12.69,4,5.49,6.58,10.69,6.14,18.94,6.57,2,12,8.41,14,13.17,5.31-2.11,9.62-7,13.53-12.46,2-5.71,4.77-14.81,3.81-19.39,3.38-3.36,4.62-8.62,3.73-11,4.07-1.41,8-1.7,11.77.49-2.59-19.31-13.61-21.19-21.09-21.58a44.13,44.13,0,0,0-15.2-8.34l-29.92-2.94-9.32,5.89c-2.93.35-8.07.05-12,1A23.72,23.72,0,0,0,571.17,506.1Z" />
      <path class="cls-27"
        d="M585.32,529.51c-.15,4.8-3.88,19.24-7.76,25.8-7.92,6.74-13.72,2.18-21.64,8.92-7.79-11-1.67-24.56,3.53-37.9,1.63-5,3.77-8.52,5.41-13.51,4.75-1.68,7.5-4.53,12.25-6.21C578.11,514.28,584.31,521.84,585.32,529.51Z" />
      <path class="cls-28"
        d="M588.77,527.25l-8.29,18.37s-.41,6-2.58,8.08l-7.37-.31c4-5.65,4.32-15.77,5.34-22.3-1.94-2.72-3.24-8-4-11.95l11,2.54C584,524.29,588.77,527.25,588.77,527.25Z" />
      <path class="cls-4"
        d="M580,518.62a48.4,48.4,0,0,1-3.95-10.25c-1.78.67-3.45,1.35-5.12,2-2,.81-3.94,1.62-6.1,2.4-.71,2.21-1.34,4.41-2,6.61h0l-.33.14.21.29c-.64,2.22-1.28,4.46-2.07,6.88l0,.07-1,2.49c-4.6,11.7-9.21,23.4-3.49,33,3.45-3,21.11-5.77,21.11-5.77l2.41-11.31,2.17-8.72s1.79-3.19,2.14-4.2l1.21,2.25.09.8c-.33.81-1.14,2.41-1.14,2.41l-2,8.45L579.07,557s-18.3,4.82-22.3,8.22l-1.09.93-.83-1.18c-7.71-10.93-2.65-23.79,2.41-36.65l1-2.45c.78-2.4,1.47-4.79,2.15-7.18s3.62-4.33,4.46-6.91c0,0,3-2.93,5.13-3.8s4.31-1.77,6.71-2.62l1.53-.54.21,1.6c.48,3.64,2.24,7.35,4,11.06C584.24,521.4,580.91,520.48,580,518.62Z" />
      <path class="cls-29"
        d="M603.11,557.82a15.48,15.48,0,0,0-8.38,5.36,21.16,21.16,0,0,1-3.94-7.32c-18.18-5.05-29.6-3.08-34.16,9,17.24,13,29.24,21.19,51.33,19.75,2.34-9,.82-13.37,3.15-22.4Z" />
      <path class="cls-30"
        d="M603.11,557.82a15.48,15.48,0,0,0-8.38,5.36c-1.67-2.22-2.19-2.25-3.31-5.74a81.29,81.29,0,0,0-8.65-1.95c2.23,5.89,5,9.59,11,13.47a6.87,6.87,0,0,0,.2,4.17c3.38-2.21,6.76-4.34,10.33-3.8l6.24-4.75c.15-.76.33-1.55.54-2.37Z" />
      <path class="cls-4"
        d="M602.81,556.54l.49-.12,9.35,5.12-.26,1A49.87,49.87,0,0,0,611,573.89a52,52,0,0,1-1.5,11.91l-.24.92-1.41-1.58c-22.62,1.48-34.86-6.35-52-19.23l-.79-.59c6.13-16.43,22.17-14,36.77-10.53l.22.68a19.81,19.81,0,0,0,1.65,3.89,20.44,20.44,0,0,0,1.15,1.78,18.14,18.14,0,0,1,3.42-2.73,15.46,15.46,0,0,1,4.55-1.86ZM595,564.07c-2.38-3-3.12-3.86-4.53-8-11.08-3-27.31-5.17-32.87,7.81,8.22,6.18,16,11.94,23.57,15.48a52.61,52.61,0,0,0,26,4.84,51.85,51.85,0,0,0,1.18-10.43,53.85,53.85,0,0,1,1.25-10.92l-7-4.31C599.12,559.51,597.29,561.41,595,564.07Z" />
      <path class="cls-29"
        d="M657.9,528.1a11.54,11.54,0,0,1,4.12.78l1.61.3c-2.54-17.61-12.23-20.37-19.54-21l-5,1.58c5.47,4.71,8.81,8.52,12.67,17.9Z" />
      <path class="cls-29"
        d="M571.17,506.1a21.24,21.24,0,0,0-9,10l.16,2.73c11.27-4,19.57-1.19,24.91,3,5.49-6,4.83-19.23-8-18.11l.28-.44a15.84,15.84,0,0,0-8.3,2.9Z" />
      <path class="cls-30"
        d="M566.45,516.45a23.7,23.7,0,0,1,4.39-.78,20.67,20.67,0,0,1,6.46-10.87C571.51,507.05,568.58,511.44,566.45,516.45Z" />
      <path class="cls-30"
        d="M661.11,525.11a23.71,23.71,0,0,0-4.39-.78c-.92-5.5-3.94-11.07-8.3-14C655.21,512,659.16,519.22,661.11,525.11Z" />
      <path class="cls-33"
        d="M633.71,570.47a50.81,50.81,0,0,0,7.2-8.4c2-5.71,4.77-14.81,3.81-19.39a14.35,14.35,0,0,0,3.62-6.41l.11-4.56v0h0v-.53L646.57,527a28.91,28.91,0,0,0-8.14-12.13c9,12.75,11.3,22,4.08,26.35-.08,4.94-.9,13.53-3.42,19.3a31.43,31.43,0,0,1-8.23,10C630,571.18,631.77,572.21,633.71,570.47Z" />
      <path class="cls-33"
        d="M561.16,519a21.89,21.89,0,0,0-.52,2.86c10.36-5,19.72-2.93,29.76,5.38,3.72,7.68,11.37,11,20.34,12.69,4,5.49,6.58,10.69,6.14,18.94,6.44,2,12.18,8.32,14.29,13l.71-2.48c-2-4.62-5.64-10.32-10.49-13-.24-7.87-3.12-13.78-7.27-19.06-6.1-1.71-13.69-6.64-17.13-10.68,1.64-5.46,4-10.36,1.67-18.56a37.17,37.17,0,0,1-1.41,7.52c-.7,1.32-1.36,3.64-2.05,5s-1.33,1.46-2,2.69a11.19,11.19,0,0,1-2.31,1.92c-.22.06-.16-.44-.24-.66-8.45-8-18-9.6-28.37-5.84Z" />
      <path class="cls-33" d="M651.93,529.22a18.73,18.73,0,0,1,11.77.47l-.24-1.58c-4.22-3.39-8.14-2.85-12-1Z" />
      <path class="cls-4"
        d="M562,520.11l-2.59,3.52c1.7-14.77,14.49-23.72,28.38-21.35l9.46-6.51,30.4,3,.1,0a50,50,0,0,1,7.64,3.19A44,44,0,0,1,643,507.1c15.4,1.45,19.67,11.08,22,24.57l-1.84-1.08a16.32,16.32,0,0,0-10.45-1.18c1.07,3.86-1.43,8.49-3.85,11.11.47,6.82-1.42,12.85-3.61,19.18-.62.87-1,1.32-1.68,2.17l.11-1.73c1.84-4.11,4.12-15.56,3.22-19.84,5.24-5.21,5.85-10.51,1.92-18.78,1.48,1.46,3.13,5.71,3.63,7.06a15.51,15.51,0,0,1,10.38.36c-1.42-8.1-4.94-13.7-8.47-16.28A17.87,17.87,0,0,0,641.82,509c-.34-1-6.19-4.49-7.42-5.14a47.8,47.8,0,0,0-7.22-3l-29.44-2.9c-2.57,1.63-6.84,3.47-9.41,5.1l-6.35.06A21.74,21.74,0,0,0,562,520.11Z" />
      <path class="cls-4"
        d="M610.63,540.2c-8.92-1.76-17.45-4.83-21.76-13.49-8.1-7.65-22.42-10.26-29.47-3.1l2.05-3.28.06-.17a27.31,27.31,0,0,1,27.54,5.14c4-1.18,6.33-5.07,8.2-9.59-.92,4.74-2.74,8.78-7.19,10.77,1.75,3.62,5.38,6.78,8.85,8.76a38.8,38.8,0,0,0,11.94,4l.26,0,.15.21a35.35,35.35,0,0,1,4.81,8.6,26.46,26.46,0,0,1,1.49,10v.28l.26.09a22.27,22.27,0,0,1,7.54,4.81,27.11,27.11,0,0,1,5.67,7.55l.17.34.34-.16c4.61-2.16,9.85-7.64,12.78-11.74l-.2,1.89c-3,3.83-8.81,9.2-13.3,11-3.21-6-7.65-11.14-14.15-13.16C617,552,614.63,545.8,610.63,540.2Z" />
      <path class="cls-29"
        d="M606.7,622.56c2.29-5.72,5.81-9.85,13-16.22-7.45-15-18.74-18-25-7.72-.52,7.44.92,14.14.4,21.58-3.73.6-5.15,3.24-3.77,5.64q-10.65,7-13.4,13.49c3.47,9.05,16.49,8.2,33.51,3.19a29.56,29.56,0,0,0-4-14C609.65,626.52,608,623.49,606.7,622.56Z" />
      <path class="cls-29"
        d="M591,625.12a4.12,4.12,0,0,0,.33.72q-10.65,7-13.4,13.49c3.47,9.05,16.49,8.2,33.51,3.19a28.22,28.22,0,0,0-2.68-11.44l-2.6-2.82a18.53,18.53,0,0,0-13.44-2.09l-1.12-.58Z" />
      <path class="cls-30"
        d="M597.09,595.55a15.71,15.71,0,0,0-2.4,3.06c-.52,7.44.92,14.14.4,21.58-3.73.6-5.15,3.24-3.77,5.64q-10.65,7-13.4,13.49a9.52,9.52,0,0,0,2.87,4c-.21-5.59,5.25-10.77,12.24-16.21a7.13,7.13,0,0,1,4.1-1.48,6.38,6.38,0,0,0-3.36-.16c-1.69-2.83,1-3.92,4.91-4.29-.3,0-.66,0-1.2-.11.49-9.41-.86-16.18-.09-24.47Z" />
      <path class="cls-33"
        d="M606.7,622.56c2.29-5.72,5.81-9.85,13-16.22a35.82,35.82,0,0,0-5.71-8.82c-5.52,8.32-9.8,16.58-11.39,24.7,1.95,2.37,2.15,4.25,1,5.74,1.59,8.11-1.17,13.42-6.25,17.22l2.07.25a109.88,109.88,0,0,0,12.07-2.91,29.56,29.56,0,0,0-4-14C609.65,626.52,608,623.49,606.7,622.56Z" />
      <path class="cls-4"
        d="M605.74,622.17a30.52,30.52,0,0,1,4.82-8.13,71.16,71.16,0,0,1,7.85-7.95c-2.75-5.55-6-9.33-9.28-11.28a10.3,10.3,0,0,0-4.36-1.49,7.81,7.81,0,0,0-4.06.74,12.22,12.22,0,0,0-5,4.88,79.6,79.6,0,0,0,.22,10.4,79.53,79.53,0,0,1,.2,10.92l-.06.83-.82.13a5.81,5.81,0,0,0-2,.66,3,3,0,0,0-1.19,1.15,2.1,2.1,0,0,0-.22,1.33,2.83,2.83,0,0,0,.35,1l.49.85-.82.54a53.14,53.14,0,0,0-8.51,6.73,21.21,21.21,0,0,0-4.33,5.9c1.65,3.81,5.38,5.56,10.6,5.82,5.51.28,12.63-1.08,20.72-3.41a26.62,26.62,0,0,0-1-5.89,33.44,33.44,0,0,0-2.87-6.88l-.39-.72.61-.55a2.44,2.44,0,0,0,.35-.38,2.17,2.17,0,0,0,.3-1.8,4.11,4.11,0,0,0-.93-1.77,2.54,2.54,0,0,0-.38-.36l-.66-.48.3-.75Zm1.78.1a7.16,7.16,0,0,1,1.92,2.81,4.38,4.38,0,0,1-1.1,3.57,37.46,37.46,0,0,1,3.07,6.65,29.09,29.09,0,0,1,1.06,7.19l0,.8-.77.23c-8.61,2.54-16.24,4-22.18,3.72-6.25-.31-10.69-2.56-12.6-7.54l-.15-.39.16-.39a22.59,22.59,0,0,1,4.95-7,53.55,53.55,0,0,1,8.1-6.51,4.66,4.66,0,0,1-.19-.77,4.15,4.15,0,0,1,.43-2.63c.78-1.47,2.85-2,4.42-2.43.36-6.93-1.27-13.84-.76-21,9.72-14.23,22.45-1.44,26.54,8.23C615.58,611.18,610.12,616.21,607.52,622.27Z" />
      <path class="cls-29"
        d="M629.86,605.11c4.69-7.92,15.53-13.69,22-17.36.93,12-1.26,19.68-4.66,30.29a11.37,11.37,0,0,0,4.9,6.74c12.94-1.37,17.79,5.5,20.11,13.12-7.49,2.84-15.53,3-29.55-1.23-3.31-.49-8.22-1.47-11.53-2a14.37,14.37,0,0,1,3.92-11.28C634.44,617,633.56,611.39,629.86,605.11Z" />
      <path class="cls-33"
        d="M649.2,589.26l2.67-1.51c.93,12-1.26,19.68-4.66,30.29a11.37,11.37,0,0,0,4.9,6.74c12.94-1.37,17.79,5.5,20.11,13.12q-.79.3-1.59.56l-1-.79c-2.44-8.62-10.44-12.3-25-10.52a8.69,8.69,0,0,1,4.77-1.45,17.67,17.67,0,0,1-4.66-7.54,73.71,73.71,0,0,0,4.47-27.72Z" />
      <path class="cls-30"
        d="M629.86,605.11a27.87,27.87,0,0,1,5.29-6.27c3.29,8,5.64,16.37,5.4,26-3.87,2.87-5.9,6.34-5.88,10.46-1.26-.22-2.47-.43-3.52-.58a14.37,14.37,0,0,1,3.92-11.28C634.44,617,633.56,611.39,629.86,605.11Z" />
      <path class="cls-4"
        d="M652.87,587.14a57.79,57.79,0,0,1-.68,16.46c-.85,4.73-2.6,9.34-4.27,14.55.45,1.7,3.06,4.51,4.49,5.56,6.57-.62,11.14.84,14.4,3.45s5.21,6.45,6.42,10.44l.28.93-.91.34A32,32,0,0,1,659.88,641a68.79,68.79,0,0,1-17.42-3.27c-1.57-.24-3.65-.61-5.72-1s-4-.72-5.73-1l-.83-.12-.06-.83a16,16,0,0,1,.66-6.09,18,18,0,0,1,3.72-5.65c-.53-5.19-2.32-13.11-4.95-17.55,5.32-9,14.52-13.38,23.32-18.36Zm-1.92,2.33c-6.3,3.54-15.51,8.78-19.87,15.65a35,35,0,0,1,3.55,8.85,66.25,66.25,0,0,1,1.53,9.82,14.62,14.62,0,0,0-3.4,5.54,13.51,13.51,0,0,0-.6,4.49c1.45.23,3.2.55,4.95.86,2,.36,4,.72,5.73,1h.07l.07,0c6.93,2.07,12.36,3.07,17,3.21a30,30,0,0,0,11-1.62,17.81,17.81,0,0,0-5.42-8.48c-2.92-2.34-7.12-3.62-13.29-3l-.38,0-.32-.22a14.48,14.48,0,0,1-3.5-3.37,11.11,11.11,0,0,1-1.83-4l-.06-.28.09-.28a113.15,113.15,0,0,0,3.92-14.49A57.65,57.65,0,0,0,650.94,589.48Z" />
      <path class="cls-27"
        d="M632,494.42c2.24,5.15,1.68,11.79.06,16.86,7.26-1.75,8-2.91,15.37-3.68.19-4.8-2.52-3.05-3.8-4.75-1.41-1.87-1.64-4.59-3.66-5.74C636.58,495.19,633.07,494.29,632,494.42Z" />
      <path class="cls-28" d="M633.45,500.79a28.31,28.31,0,0,1-.46,6.85l.94,3.73A27.21,27.21,0,0,0,638,501l-2-2.1Z" />
      <path class="cls-32"
        d="M633.87,510.76c7.26-1.75,6.24-2.39,13.58-3.16.08-2-.34-2.85-.94-3.3l-.33.2C637.62,507.82,635.91,509.95,633.87,510.76Z" />
      <path class="cls-4"
        d="M632.46,502.22a29.09,29.09,0,0,1-1.37,8.75l-.6,1.88,3.44-1.47c4.86-1.47,10.21-3.51,14.3-3.38a9.6,9.6,0,0,0-.67-4.38,13.89,13.89,0,0,0-3.68-1.36l-3-4.89c-3-1.83-6.19-3-9.81-2.52-.39.12,1.41,5.65,1.41,7.38Zm2.08,0a22.17,22.17,0,0,0-1-6.61,22.4,22.4,0,0,1,6,2.7l3,4.41a9,9,0,0,0-2.08.56,17,17,0,0,1,5.7,1.23,4.62,4.62,0,0,1,.55,2.49,36.32,36.32,0,0,0-13.2,3.84A40.72,40.72,0,0,0,634.54,502.22Z" />
      <path class="cls-34" d="M607.69,503.44l9.85,6.37c6.29,3.91,13.22,3.86,15.76,1.07l1.94-12.82L606,475.57Z" />
      <path class="cls-35"
        d="M607.69,503.44l1.77,1.15,2.54-.07.1-6.31c9.12,6.85,16.19,8,22.18,6.23l1-6.38-4.81-3.69-23.91-9.6Z" />
      <path class="cls-36"
        d="M608.95,505.14l10.42,6.06a25.46,25.46,0,0,0,7.73,1.9,10.13,10.13,0,0,0,5.15-.76c.81-.36,1.48-.72,2.19-1.11l.09-.68h0l-1.34.46c-5.47,4-16.8-1.17-22.53-5.45l-1.71-.42Zm9.44-21.07L605,473.79l.45,7.24,1.76.41-.32-4.11,7.55,5.8Z" />
      <path class="cls-37"
        d="M607.27,504.16l1.68,1,1.71.42c-.62-.46-1.18-.92-1.66-1.34l-1.78-22.76-1.76-.41q.71,11.45,1.43,22.9l.38.22Zm26.49,6.64,1-2.33,1.36-10.76-17.76-13.64-3.94-.92,19.89,15.28L633.22,511l1.29-.43Z" />
      <path class="cls-38"
        d="M577.57,502.57c16.72.55,26.09,3.12,40,7.25-7.06-6.67-12.34-13.93-15.28-22.37-4.34.59-7.86,3.75-11.42,7.88l-4.71-2.72C581.43,494.92,578.27,497.78,577.57,502.57Z" />
      <path class="cls-27"
        d="M606,506.54c2.95.76,6,1.62,9.18,2.57-8.75-6.86-13.17-13.59-15.45-20.25l-2.09.3a29.65,29.65,0,0,0-6.77,6.18l-2-1.18h0L594,498.5a31.64,31.64,0,0,0,7.82,6.76Z" />
      <path class="cls-28"
        d="M600.82,491.74q-.64-1.45-1.13-2.89l-2.09.3a28.24,28.24,0,0,0-6.32,5.66l1.54,2.07a31,31,0,0,1,8-5.14Z" />
      <path class="cls-32"
        d="M594.9,499.5l-.58-.67-.28-.34-.42-.25-2.72-2.68-4.81-1.79c1.29,1.91,1.43,3.11,5.57,5.81l.72.46.64.4c2,1.27,4.48,2.68,7.22,4.18l1,.22A32.32,32.32,0,0,1,594.9,499.5Z" />
      <path class="cls-27"
        d="M577.57,502.57a124.76,124.76,0,0,1,22,2.47l.69-.4c-9.49-5.21-11.9-7.08-14.15-10.85l-.34-1C581.26,495.08,578.25,497.91,577.57,502.57Z" />
      <path class="cls-28"
        d="M577.05,503c1.4.07,1.94-.29,3.25-.19a12.46,12.46,0,0,1,7.48-6.62,16.4,16.4,0,0,1-2.22-3.46A20.91,20.91,0,0,0,577.05,503Z" />
      <path class="cls-32"
        d="M606.45,497a47,47,0,0,1-3.27-6.68c-.9-.64-1.85-1.23-2.67-1.9-.26.11-.72.46-1,.59a39.17,39.17,0,0,0,3.74,7.34q.35.56.72,1.12t.78,1.12q.89,1.24,1.94,2.48.44.52.9,1,.64.72,1.34,1.45,1,1,2.09,2.05l1.08,1,.71.62.71.6c.26.22,1.16,1,1.43,1.25.62.2.6-.2,1.22,0C613,505.42,609.19,501.37,606.45,497Z" />
      <path class="cls-4"
        d="M578.48,503.24a76.77,76.77,0,0,1,19.89,2,164.18,164.18,0,0,1,21,5.92,76,76,0,0,1-10.67-12.5,36.13,36.13,0,0,1-2.15-3.72l0-7.59-3.48-1.1-.9.12a14,14,0,0,0-6.48,2.81,33.31,33.31,0,0,0-5,4.77l-4.45-2.57-.5.25a20.13,20.13,0,0,0-6.09,4.29,11.81,11.81,0,0,0-3,6.45l-.18,1.23,2.12-.41Zm0-.48a15.79,15.79,0,0,1,2.67-5.4,17.41,17.41,0,0,1,5-3.57L594,498.5a22.46,22.46,0,0,1-2.15-3,34.36,34.36,0,0,1,5-4.56,16.89,16.89,0,0,1,5.38-2.63c2.2,7.26,8.57,15.49,13.93,20.79A135.88,135.88,0,0,0,590.6,503,87.21,87.21,0,0,0,578.45,502.76Z" />
      <path class="cls-39"
        d="M592.63,475.4c1.5,14.66,38.62,32.22,52,23.47,17.64-11.5,29.76-37.6,17.92-39.26-3.58-3.84-2.65-13.18,3-21.12-4.22-24.18-40.51-42.56-70.35-25.09-2.68,10.59-6.6,23.19-8.16,33.69q-.59-.55-1.19-1.06c-3.63-3.05-6.18-5.55-9.09-3.8-11.9,7.17-7,27.88,9.38,35.91C588.18,479.13,590.38,478.16,592.63,475.4Z" />
      <path class="cls-40"
        d="M639.53,500.83a14.15,14.15,0,0,0,5.13-2c17.64-11.5,29.76-37.6,17.92-39.26l-.09-.1.53,2.7c6.06,7.28-11.83,34.1-25.65,38.65Z" />
      <path class="cls-40"
        d="M592.63,475.4c1.5,14.66,38.62,32.22,52,23.47,17.64-11.5,29.76-37.6,17.92-39.26-3.58-3.84-2.65-13.18,3-21.12-4.22-24.18-40.51-42.56-70.35-25.09-2.68,10.59-6.6,23.19-8.16,33.69q-.59-.55-1.19-1.06c-3.63-3.05-6.18-5.55-9.09-3.8-11.9,7.17-7,27.88,9.38,35.91,2,1,4.23,0,6.49-2.73Zm1-.15-.82-5.12c-.83,3.79-.84,5.81-4.75,8a2.56,2.56,0,0,1-2.26.39,26.87,26.87,0,0,1-11.39-10.63A25.3,25.3,0,0,1,571,457.38a17.12,17.12,0,0,1,1.7-9.46,12.25,12.25,0,0,1,4.53-4.82c2.9-1.75,8.69,3.6,10.83,5.59l0-1.51c1.11-7.48,3.45-16.11,5.67-24.3.81-3,1.6-5.89,2.35-8.84a49,49,0,0,1,14.12-5.44,50.11,50.11,0,0,1,30.22,3c12.76,4.18,21.48,13.44,24,26.63a28.63,28.63,0,0,0-4.83,11.95c-.59,4.21.15,7.91,2.18,10.1l.24.25.36,0a4.4,4.4,0,0,1,2.46,1.07c1.21,1.13,1.6,3.11,1.31,5.59a29.23,29.23,0,0,1-3.14,9.31A58.12,58.12,0,0,1,644.12,498a14.74,14.74,0,0,1-5.67,2.45c-6.69,1-16-.76-24.23-4.53s-15.11-10.08-18.57-15.52A12.08,12.08,0,0,1,593.67,475.25Z" />
      <path class="cls-41"
        d="M592.63,475.4c.44,4.25,4.17,9.29,9.15,13.32l9.76,6.58,3,.09c-12.85-7.81-16.75-18.53-17.76-25.95-11.54-3.75-3.19-29.84,12.47-11-1.69-5-5.52-8.73-11.08-9.47-3.23-17,12.42-21.52,14.89-21.57.57-5.5-3.78-5.48-6.14-9.24l-9.21-3.93-2.09,1c-2.68,10.59-7,21.32-8.53,31.82q-.59-.55-1.19-1.06c-3.63-3.05-6.18-5.55-9.09-3.8-11.9,7.17-6.14,28.32,10.24,36.35C589,479.57,590.38,478.16,592.63,475.4Z" />
      <path class="cls-42"
        d="M586.58,446.66l-.73-.63c-3.63-3.05-6.18-5.55-9.09-3.8a13.26,13.26,0,0,0-4.18,4c1.65.65,2.49,1.57,4.05,5,.38-.67.45-1,.83-1.72,5,2.29,8.28,8.43,10.51,13.91-4.34,1.35-5.15,5.42-1.16,6.7-.49-2.12.45-5.33,3.69-5.7-2.74-3.63-3.41-9.53.31-13.15-1.36-1.37-2.8-3.11-4.12-4.36Z" />
      <path class="cls-43"
        d="M606.12,418l-1.65-.31,2.4-.06h.49c-1.52-2.08-3.88-4.63-6.06-5.46l-2.47-.93,2.68-.06a103.09,103.09,0,0,1,11.27.39,121,121,0,0,1,14.82,2.22c1.75.37,3.49.79,5.21,1.28a25.39,25.39,0,0,1,3.15,1.05l.15.06.08.14A35.13,35.13,0,0,0,646.9,427c3.18-.78,6-4.39,8.47-6.39l.37-.3.32.33a34.12,34.12,0,0,1,8.81,17.16l.13.63h-.65a17.94,17.94,0,0,0-14.1,6.93l-.11.14-.17,0a12.47,12.47,0,0,1-6.36,0l-.09,0-.07,0a28,28,0,0,1-4.65-4.07,58.11,58.11,0,0,0-6.7-6,31.36,31.36,0,0,0-9.89-4.89,21.23,21.23,0,0,0-9.78-.4l-.47.09-.11-.45a22.68,22.68,0,0,0-1.25-3.71A63.65,63.65,0,0,0,606.12,418Z" />
      <path class="cls-44"
        d="M602.66,414.62c5.72-.73,15.78-.19,30.09,2.93,2.6,3.46,5.72,6.18,13.3,9.49,1.13.28-8-9.29-6.84-9l-29.41-14.2-17.44,2.28Z" />
      <path class="cls-40"
        d="M654.48,421.33c.3-.27.6-.53.89-.77l.37-.3.32.33a34.12,34.12,0,0,1,8.81,17.16l.13.63h-.65a19.47,19.47,0,0,0-2.17.14h0c-1-5.88-4-11.24-7.91-16.34Z" />
      <path class="cls-4"
        d="M593.67,475.25a12.08,12.08,0,0,0,2,5.16c3.46,5.44,10.64,11.21,18.85,15s17.44,6,24.14,5a13.68,13.68,0,0,0,5.55-1.94c8.12-5.3,15-14.24,18.84-21.89a29.23,29.23,0,0,0,3.14-9.31c.29-2.49-.09-4.46-1.31-5.59a4.4,4.4,0,0,0-2.46-1.07l-.36,0-.24-.25c-2-2.18-2.78-5.88-2.18-10.1a28.63,28.63,0,0,1,4.83-11.95c-2.52-13.19-11.25-22.45-24-26.63a50.11,50.11,0,0,0-30.22-3,49,49,0,0,0-14.12,5.44c-.75,2.94-1.54,5.86-2.35,8.84-2.22,8.19-4.56,16.82-5.67,24.3l0,1.51c-2.14-2-7.92-7.34-10.83-5.59a12.25,12.25,0,0,0-4.53,4.82,17.12,17.12,0,0,0-1.7,9.46c.76,9,7.08,15.52,15.1,19.44,3.84,1.88,6.16-4.16,6.72-6.68l.82,5.12Zm.19,6.32a15.81,15.81,0,0,1-1.86-4,5.86,5.86,0,0,1-6.86,1.08c-8.63-4.23-15.37-11.33-16.18-21.06-.53-6.28.93-13.78,6.75-17.29,3.35-2,6.52,1.21,10.06,4.22l.56.47c1.22-7.15,3.36-15.06,5.41-22.6.88-3.25,1.74-6.42,2.46-9.25l.11-.44.4-.23a51.28,51.28,0,0,1,15.17-5.92,52.18,52.18,0,0,1,31.47,3.16c9.41,4,17.17,10.66,21.61,18.53a31.31,31.31,0,0,1,3.64,10l.07.42-.26.36a26.57,26.57,0,0,0-4.72,11.37c-.49,3.46,0,6.44,1.47,8.22a6.19,6.19,0,0,1,3.16,1.52c1.7,1.61,2.25,3.94,2.08,6.86a34.14,34.14,0,0,1-3.51,10.45,60.46,60.46,0,0,1-19.68,22.26,15.83,15.83,0,0,1-6.43,2.26c-7.11,1-16.52-1.2-25-5.12S597.53,487.33,593.86,481.57Z" />
      <path class="cls-45"
        d="M590.71,451.31a104.6,104.6,0,0,1,10-32.37c1.83-.48,2.81-.75,7.59-.79-1.81-2.72-4.54-5.56-6.85-6.43,15.62-.35,30.92,3.44,34.24,4.89a35.58,35.58,0,0,0,11.07,10.88c3.51-.74,7.19-5,9-6.66,1.45.63,4.43,3.3,7.41,8.22,6.41-6.73,11.18-11.75,5-19.07,3.23-3,6.59-5.95,8-7.92-1.06-15.12-13.21-28.62-25.4-37.37a89.27,89.27,0,0,1-3.47,23.76,14.91,14.91,0,0,0-3.18-7c-6.67-4.34-19.39-6.41-29.12-4.18,5.17,2.57,7.56,4,10.9,7.82-15.21,1-24,4.1-36.08,11.21a27,27,0,0,1,9.54,2c-5.57,3-19.42,8.8-22.08,10.73-1,10.6,6.16,26.42,7.8,34.87Z" />
      <path class="cls-46"
        d="M642.26,458.3c1.48-1.12,3.68-2.47,4.78-1.72.4-2.89.69-6.85,2.21-9.3-2.28.82-4.44.18-6.09-.18C641,449.8,640.76,455,642.26,458.3Z" />
      <path class="cls-47"
        d="M600,436.59c11.91-16,28.85-11.4,44.29,7.48,2.07.76,4,.5,6.42.06q-.47.51-.92,1.06a12,12,0,0,1-6.12,0,28.3,28.3,0,0,1-4.56-4c-3.75-3.74-8.65-8.61-16.8-11a22.1,22.1,0,0,0-12,0,18.28,18.28,0,0,0-9.16,6.12Z" />
      <path class="cls-48"
        d="M609.11,468.17c3.88,2.81,6,3.72,11.84,5.8,7.55,2.69,12.42-.81,30.58,2.73-3.44,3.71-3.72,6-4.69,9.26-.25.07-1.27.53-1.51.59C627.94,491.14,617.58,481.57,609.11,468.17Z" />
      <path class="cls-49"
        d="M616.36,474.63a5.72,5.72,0,0,1-1.37-2.52l-.88-.41a29,29,0,0,1-3.55-2,68.21,68.21,0,0,0,4.34,5.9,4.65,4.65,0,0,1,1.18-.66l1.52.56Z" />
      <path class="cls-14"
        d="M614.82,471.59c1.62.74,3.53,1.38,6.13,2.38,7.19,2.77,12-.41,28.72,2.38a22,22,0,0,1-3.84,5.24l-1.56.43.9.48a10.75,10.75,0,0,1,.09,4.08c-13.61,3.56-23.25-1.86-30.52-10.83a4,4,0,0,1,1.36-.83c.51.19.82.5,1.33.69-.41-.28-.64-.69-1-1A7,7,0,0,1,614.82,471.59Z" />
      <path class="cls-50" d="M615.17,476.51l1.26-1.16a36.59,36.59,0,0,0,5.68,3.43,8.17,8.17,0,0,0-1.69,2.8Z" />
      <path class="cls-51"
        d="M648,476.39c0,.06-4.1-.69-4.13-.63a38.5,38.5,0,0,1-3.6,6,12.94,12.94,0,0,0,4.12-.08A26.14,26.14,0,0,0,648,476.39Z" />
      <path class="cls-52"
        d="M617.21,472.59a6.32,6.32,0,0,0-.08,2.68,26.37,26.37,0,0,0,5.2,3.07,30,30,0,0,1,.66-3.77Z" />
      <path class="cls-53"
        d="M614.94,471.35c1.06.49,2.26.93,3.69,1.46l2.42.91c3.48,1.34,6.41,1.27,10.43,1.17a86.67,86.67,0,0,1,18.23,1.2l.35.06.22.31a23.67,23.67,0,0,1-4.22,5.38l-1.39.19,1,.33a13,13,0,0,1,0,4.07l-.26.34-.18,0c-6.87,1.79-12.73,1.32-17.8-.73a32.9,32.9,0,0,1-13-10.18l-.14-.18.17-.17a3.9,3.9,0,0,1,1.36-.92,6.27,6.27,0,0,1-1.18-2.52l-.15-.44-.21-.6.58.27Zm3.49,2c-1.19-.44-1.81-.82-2.74-1.22.2.84.26,2.1.91,2.7l2.83,2.05-3.2-1.82a6.65,6.65,0,0,0-1.21.8,32.31,32.31,0,0,0,12.7,9.8c4.92,2,10.62,2.46,17.29.75a14.87,14.87,0,0,0,0-3.9,10,10,0,0,0-1.94-.6l2.29-.26a25.69,25.69,0,0,0,3.89-5.05,86.11,86.11,0,0,0-17.78-1.13c-4.09.1-7.06.17-10.63-1.21Z" />
      <path class="cls-4"
        d="M614.49,471a68.83,68.83,0,0,0,6.61,2.61c3.4,1.21,6.25,1.34,10.1,1.25a80,80,0,0,1,20.11,1.5,5.81,5.81,0,0,0,4.29-2,5.63,5.63,0,0,1-4.82,2.6,83.39,83.39,0,0,0-19.56-1.52c-3.93.1-6.86.17-10.4-1.09a69.49,69.49,0,0,1-6.69-2.64,29,29,0,0,1-3.55-2c4,6,8.4,11.09,13.76,14.23,5.79,3.39,12.7,4.53,21.37,2.14,1-.25,1.55-.4,2.65-.61-3.78,2.75-16.31,4.3-24-.55-5.61-3.29-10.5-9.23-14.61-15.5-.6-.45-1.21-.83-1.26-1a17.53,17.53,0,0,1-1-5.1l-.4-.36a6.13,6.13,0,0,0-1.75.83,4.71,4.71,0,0,1,2-2.82,27.85,27.85,0,0,1,4,6.18c-.93-.81-1.77-1.74-2.62-2.64a6,6,0,0,0,.9,3.17C610.43,468.71,612.05,469.81,614.49,471Z" />
      <path class="cls-54"
        d="M634.17,497.22c3,0,5.52-.83,5.61-1.95s-2.29-2.07-5.3-2.11-5.52.83-5.61,1.95S631.16,497.17,634.17,497.22Z" />
      <path class="cls-55"
        d="M582.22,453.76l3.11,4.5,2.65,5.12-1.71.77-1.64,1-.15,3C578.07,468.1,576.91,456.58,582.22,453.76Z" />
      <path class="cls-4"
        d="M576.82,449.2l.42-.51c6.59,4.39,8.2,8,11.19,15.19-1.67.26-3.16.89-3.63,2.85-.34,1.43.89,2.71,2,3.35-1.5-.46-3.6-2.26-3.13-4.26a3.27,3.27,0,0,1,3.6-2.62c-2.36-5.44-4.9-9.29-9.81-12.64-.88,1.2-1.72,2.77-1.33,4.25C574.49,454.07,575.89,450.35,576.82,449.2Z" />
      <path class="cls-4" d="M628.37,494.43c1.79,4.05,8.16,5.51,12.07.49C636,498.32,632.1,497.25,628.37,494.43Z" />
      <path class="cls-56"
        d="M625.84,459.82a15.26,15.26,0,0,0,4.61-9.24c.92-7.76-4.27-14.49-11.59-15s-14,5.33-14.92,13.09a15,15,0,0,0-.09,2.32,12.58,12.58,0,0,1,1.7,1.47h0l.29.25h0l.07.07.21.2.07.07.21.2.07.07h0l.2.21.09.1.21.23.07.07.2.23.07.09.18.22.1.13.14.19.11.15.12.17.12.17h0A34.18,34.18,0,0,0,625.84,459.82Z" />
      <path class="cls-57"
        d="M613.19,438.43c-6.88,6.87-6.42,16.33-.07,19-.43-.33-4.9-2.2-5.33-2.52l-2.7-2.76C604.64,445.55,608.84,439.14,613.19,438.43Z" />
      <path class="cls-58"
        d="M628.57,444.45c-.25,7.74-6.57,15.24-12.33,13.58.47,1.22,4.63,1.57,5.18,1.55,1.31-.24,2,.2,3.33,0C629.29,453.78,629.86,449.74,628.57,444.45Z" />
      <path class="cls-4"
        d="M625.6,459.41a15.33,15.33,0,0,0,2.88-4,14.77,14.77,0,0,0,1.45-4.85,13.46,13.46,0,0,0-2.6-9.86,11.76,11.76,0,0,0-8.52-4.61,12.94,12.94,0,0,0-9.46,3.3,14.7,14.7,0,0,0-4.87,9.31,14.54,14.54,0,0,0-.1,1.79q0,.17,0,.33l-.86.17a5.88,5.88,0,0,1-.85-.29l.22-.14c-.19-9.17,7.63-16.76,16.37-16.12,12.85.93,16.83,17.39,7.93,25.26Z" />
      <path class="cls-4"
        d="M604.37,450.81q0,.25,0,.5a4.14,4.14,0,0,0-.88-.34l.86-.17Zm24.8,9.36-3.34.16a32.69,32.69,0,0,1-11.46-1.81,41.12,41.12,0,0,1-5.77-2.51,13,13,0,0,0-1.33-2,39.27,39.27,0,0,0,7.48,3.52,31.68,31.68,0,0,0,10.89,1.76C626.47,459.32,628.8,459.29,629.17,460.18Z" />
      <path class="cls-59"
        d="M613.46,454.86c2.72.63,5.75-1.88,6.78-5.6s-.34-7.24-3.06-7.87-5.75,1.88-6.78,5.6S610.74,454.24,613.46,454.86Z" />
      <g class="cls-60">
        <path class="cls-61"
          d="M614.43,451.6a3,3,0,0,0,3.13-2.73,2.72,2.72,0,0,0-2.43-3.13,3,3,0,0,0-3.13,2.73A2.72,2.72,0,0,0,614.43,451.6Z" />
        <path class="cls-61"
          d="M656.43,457.1a3,3,0,0,0,3.13-2.73,2.72,2.72,0,0,0-2.43-3.13A3,3,0,0,0,654,454,2.72,2.72,0,0,0,656.43,457.1Z" />
        <path class="cls-14"
          d="M616.79,447.68a3.66,3.66,0,0,0,3.86-3.19,3.28,3.28,0,0,0-3-3.69,3.66,3.66,0,0,0-3.86,3.19A3.28,3.28,0,0,0,616.79,447.68Z" />
      </g>
      <path class="cls-61"
        d="M613.54,454.53a4.37,4.37,0,0,0,3.73-1.1,8.44,8.44,0,0,0,2.64-4.25c0-.12.07-.26.1-.39a7.67,7.67,0,0,0-.24-4.55,3.93,3.93,0,0,0-2.52-2.46l-.14,0a4.37,4.37,0,0,0-3.73,1.1,8.44,8.44,0,0,0-2.64,4.25c0,.13-.07.26-.1.39a7.67,7.67,0,0,0,.24,4.55,3.93,3.93,0,0,0,2.52,2.46l.14,0Zm4.17-.56a5,5,0,0,1-4.32,1.24l-.17,0a4.6,4.6,0,0,1-3-2.86,8.37,8.37,0,0,1-.28-5q0-.2.11-.42a9.14,9.14,0,0,1,2.87-4.6,5,5,0,0,1,4.32-1.24l.17,0a4.6,4.6,0,0,1,3,2.86,8.37,8.37,0,0,1,.28,5c0,.13-.07.28-.11.42A9.14,9.14,0,0,1,617.71,454Z" />
      <path class="cls-4"
        d="M589.17,453.49a13.18,13.18,0,0,1,1.55-2.18h0a14.12,14.12,0,0,0-2.61-2.62c-6.34-5.94-5-5.87-5-6.35a81.59,81.59,0,0,1,8.52,8.05c7.76-6.94,20.4,3.64,19,12.62C608.74,452.14,597.78,446.09,589.17,453.49Z" />
      <path class="cls-62"
        d="M652.6,369.41c-2,22.84-8.34,34.56-15.37,44.75.52.82.09,1,.89,1.35,10.71-11.76,18.78-27.31,18.65-42.18C655.81,371.8,654.34,371,652.6,369.41Z" />
      <path class="cls-4"
        d="M595.77,506.59a25.75,25.75,0,0,0-20.39-2.09c-.38-.56,0-.59-.4-1.15C582.86,501,590.73,501.68,595.77,506.59Z" />
      <path class="cls-36"
        d="M635.15,505.57a16.58,16.58,0,0,1-2.9,6.76l4-1.66.14-.71-2.23.69A10,10,0,0,0,635.15,505.57Z" />
      <path class="cls-62"
        d="M620,378c7.48,3.9,12.38,9.31,13,22.48l1.07.18c1.85-12.28-3.46-19.11-10.24-22.73A29.5,29.5,0,0,0,620,378Z" />
      <path class="cls-62" d="M656.55,420.24a16.59,16.59,0,0,1,6.36,5.81c6.08-5,8.37-10,3.46-15Z" />
      <path class="cls-62"
        d="M594,395.7a38.3,38.3,0,0,1,16.19,6.82c-2.81-3.38-6.83-7.82-12.3-8.64A23.31,23.31,0,0,0,594,395.7Z" />
      <path class="cls-62"
        d="M579.76,410.45A87.09,87.09,0,0,0,584.69,435c-1-4.77-2.19-11-1.54-16.07,4.91-2.47,13.46-2.28,20.87-2.3-6.44-1.18-13.49-2.05-21-.75-.17-2.43-.14-5.11-.09-7.52A12.43,12.43,0,0,0,579.76,410.45Z" />
      <path class="cls-33"
        d="M591.5,528.82l4.57-1.73.92-.35c.68-2.28,1.49-4.46,2-6.83a22.24,22.24,0,0,0,.23-9.24c-.14-.8-.34-1.63-.58-2.5l0,.18c-.07.73-.15,1.44-.25,2.14a34,34,0,0,1-1.13,5.2,25.16,25.16,0,0,1-.91,3.48,11.6,11.6,0,0,1-6.28,7.29A15,15,0,0,0,591.5,528.82Z" />
      <path class="cls-33"
        d="M596.07,527.09l-4.57,1.73a24.56,24.56,0,0,0,7.42,6.42,38.8,38.8,0,0,0,11.94,4l.26,0,3-1.9a31,31,0,0,1-4.88-1.87c-4.83-2.3-9.69-5.8-12.25-8.81Z" />
      <path class="cls-33"
        d="M611.28,539.54a35.35,35.35,0,0,1,4.81,8.6,26.46,26.46,0,0,1,1.49,10v.28l.26.09.23.09,2.47-1.55.86-.54a30.41,30.41,0,0,0-6-17.36q-.61-.86-1.27-1.7l-3,1.9Z" />
      <path class="cls-33"
        d="M621.39,556.48l-.86.54-2.47,1.55a22.43,22.43,0,0,1,7.31,4.73,27.75,27.75,0,0,1,5.1,6.46q.3.54.57,1.09l.16.33h0l.2-.09.36-1.23.12-.42c-.35-.8-.74-1.63-1.19-2.47C628.58,562.94,625.4,558.66,621.39,556.48Z" />
      <path class="cls-63"
        d="M654.63,458.51c4.63-9.18,1.72-21.16-4.26-20.64a10.37,10.37,0,0,0-7.46,4.43,43.41,43.41,0,0,0-1.47,4.59c.28-.69.57-1.37.89-2,5.12-4.52,8.62,2.53,7.6,7.07-.9,4-4,6.65-6.91,6a4.64,4.64,0,0,1-3-2.4h-.1V457l1.7,3.62A36.73,36.73,0,0,0,654.63,458.51Z" />
      <path class="cls-64" d="M646.3,460.38c5.14-2.62,7.69-8.1,8.36-15.64a22.32,22.32,0,0,1-2,14.28Z" />
      <path class="cls-4"
        d="M654.25,458.1a21.48,21.48,0,0,0,2.11-10.25,16.07,16.07,0,0,0-1.28-5.86,6.33,6.33,0,0,0-2.85-3.27c-3.74-1.73-8.69,2.24-10.43,5.42.44-1.36,1.4-3.45,1.91-4.54,2.16-2.26,6.57-4.26,9.5-2.9,5.76,2.67,5.56,16,2.17,21.43Z" />
      <path class="cls-4"
        d="M656.73,458.34l-1.93.67a31.86,31.86,0,0,1-6.94,1.72,45.76,45.76,0,0,1-6.37.4l.13-1.06a44.62,44.62,0,0,0,6.15-.39,31,31,0,0,0,6.49-1.58C655,458,656.16,457.59,656.73,458.34Z" />
      <path class="cls-65"
        d="M642.33,444.88a24,24,0,0,0-2.63,9.94,4.89,4.89,0,0,0,3.32,3.11c2.92.67,6-2,6.91-6C650.95,447.41,647.45,440.36,642.33,444.88Z" />
      <g class="cls-66">
        <path class="cls-61" d="M643.48,454.5a3.3,3.3,0,1,0-3-3.53A3.26,3.26,0,0,0,643.48,454.5Z" />
        <path class="cls-14" d="M646.91,449.56a4.06,4.06,0,1,0-3.48-4.32A3.9,3.9,0,0,0,646.91,449.56Z" />
      </g>
      <path class="cls-61"
        d="M642.76,445.2a29.43,29.43,0,0,0-1.89,5.07,17.75,17.75,0,0,0-.65,4.44,5.23,5.23,0,0,0,1.21,1.77,3.69,3.69,0,0,0,1.71.92h0a4.28,4.28,0,0,0,3.73-1.13,8.29,8.29,0,0,0,2.52-4.42v0a8.54,8.54,0,0,0-.58-5.11,5.58,5.58,0,0,0-1.52-2.09,2.79,2.79,0,0,0-2-.66,4.6,4.6,0,0,0-2.51,1.24Zm-2.91,4.8a30.58,30.58,0,0,1,2-5.35l0-.09.08-.07a5.69,5.69,0,0,1,3.2-1.57,3.82,3.82,0,0,1,2.79.89,6.63,6.63,0,0,1,1.82,2.48,9.65,9.65,0,0,1,.65,5.78v0a9.35,9.35,0,0,1-2.86,5,5.31,5.31,0,0,1-4.65,1.37h0a4.74,4.74,0,0,1-2.19-1.19,6.33,6.33,0,0,1-1.5-2.24l0-.09v-.1A18.61,18.61,0,0,1,639.85,450Z" />
      <path class="cls-40"
        d="M639.49,462.94c2.09.3,3.85,0,3.93-.74a.61.61,0,0,0-.15-.44l.56.08-1.63-2.77-1.94-2.62-1.39-2.8-.37-1.7-1-.21-.6.79a17.93,17.93,0,0,0,1.71,7.75c-1.55-.06-2.72.27-2.79.84S637.4,462.64,639.49,462.94Z" />
      <path class="cls-67"
        d="M637.6,467.47c-7.13,0-9.05-4.49-7.42-5.66,1.18-.85,9.08,4.29,12.84,1.5.16.2.76.2.92.39L641,466A22.27,22.27,0,0,1,637.6,467.47Z" />
      <path class="cls-4"
        d="M644.32,460.79c.92,1,1.24,1.4-.15,3s-3.14,2.93-6.57,3.64c.92-.21,7-3.94,5.43-5.77s-4.48-6.7-4.81-9.41a.44.44,0,0,1,.31.12s0,.09.05.13A31.15,31.15,0,0,0,644.32,460.79Z" />
      <path class="cls-68"
        d="M633.09,463.58a6.38,6.38,0,0,1,2.27,2.38c0,.22-1.17.19-2.29-.46C630.46,464,631.14,462.45,633.09,463.58Z" />
    </g>
  </g>
</svg>